<?xml version="1.0" encoding="utf-8"?>
<svg xmlns="http://www.w3.org/2000/svg" xmlns:xlink="http://www.w3.org/1999/xlink" style="margin: auto; background: #fff; display: block; z-index: 1; position: relative; shape-rendering: auto;" width="500" height="350" preserveAspectRatio="xMidYMid" viewBox="0 0 500 350">
<g transform=""><path id="path0" d="M 158.43344311958185 61.8975260606441
c 0 20.563024162349876 -5.031378252489863 5.906400557270709 -10.937778809760573 5.906400557270709
S 136.5578855000607 82.46055022299397 136.5578855000607 61.8975260606441
s 5.031378252489863 -5.906400557270709 10.937778809760573 -5.906400557270709
S 158.43344311958185 41.33450189829422 158.43344311958185 61.8975260606441
z" fill="none" stroke="none"></path>
<circle cx="0" cy="0" r="2.426750194765775" fill="#9df871">
  <animateMotion begin="-7.499947365785422s" dur="10s" repeatCount="indefinite">
    <mpath xlink:href="#path0"></mpath>
  </animateMotion>
</circle><path id="path1" d="M 180.64898726146262 104.48213147497276
c 0 21.003527674554974 -5.139161026752812 6.032928161840259 -11.17208918859307 6.032928161840259
S 158.30480888427647 125.48565914952773 158.30480888427647 104.48213147497276
s 5.139161026752812 -6.032928161840259 11.17208918859307 -6.032928161840259
S 180.64898726146262 83.47860380041779 180.64898726146262 104.48213147497276
z" fill="none" stroke="none"></path>
<circle cx="0" cy="0" r="1.2973571334390122" fill="#e0ff77">
  <animateMotion begin="-7.749023273797366s" dur="10s" repeatCount="indefinite">
    <mpath xlink:href="#path1"></mpath>
  </animateMotion>
</circle><path id="path2" d="M 272.91536264784185 181.64489058967501
c 0 30.73164320522496 -7.519444614044404 8.827174112139085 -16.34661872618349 8.827174112139085
S 240.2221251954749 212.37653379489998 240.2221251954749 181.64489058967501
s 7.519444614044404 -8.827174112139085 16.34661872618349 -8.827174112139085
S 272.91536264784185 150.91324738445005 272.91536264784185 181.64489058967501
z" fill="none" stroke="none"></path>
<circle cx="0" cy="0" r="1.9175943559112882" fill="#51cacc">
  <animateMotion begin="-1.38820426538804s" dur="10s" repeatCount="indefinite">
    <mpath xlink:href="#path2"></mpath>
  </animateMotion>
</circle><path id="path3" d="M 350.3242285706804 189.62250519458917
c 0 28.26442968276296 -6.915764709612213 8.118506398240424 -15.034271107852637 8.118506398240424
S 320.2556863549751 217.88693487735213 320.2556863549751 189.62250519458917
s 6.915764709612213 -8.118506398240424 15.034271107852637 -8.118506398240424
S 350.3242285706804 161.3580755118262 350.3242285706804 189.62250519458917
z" fill="none" stroke="none"></path>
<circle cx="0" cy="0" r="1.7651988399990768" fill="#e0ff77">
  <animateMotion begin="-6.587943479277667s" dur="10s" repeatCount="indefinite">
    <mpath xlink:href="#path3"></mpath>
  </animateMotion>
</circle><path id="path4" d="M 239.66321597558738 185.73825859330313
c 0 32.64608068694502 -7.987870806380164 9.377065729228889 -17.364936535609054 9.377065729228889
S 204.93334290436928 218.38433928024816 204.93334290436928 185.73825859330313
s 7.987870806380164 -9.377065729228889 17.364936535609054 -9.377065729228889
S 239.66321597558738 153.0921779063581 239.66321597558738 185.73825859330313
z" fill="none" stroke="none"></path>
<circle cx="0" cy="0" r="2.45660467998611" fill="#de9dd6">
  <animateMotion begin="-9.90726238105886s" dur="10s" repeatCount="indefinite">
    <mpath xlink:href="#path4"></mpath>
  </animateMotion>
</circle><path id="path5" d="M 425.00085306942105 105.13787240706107
c 0 26.899550061287815 -6.581804802229996 7.726466506965649 -14.308271309195646 7.726466506965649
S 396.3843104510297 132.0374224683489 396.3843104510297 105.13787240706107
s 6.581804802229996 -7.726466506965649 14.308271309195646 -7.726466506965649
S 425.00085306942105 78.23832234577326 425.00085306942105 105.13787240706107
z" fill="none" stroke="none"></path>
<circle cx="0" cy="0" r="2.0777141825343985" fill="#ff708e">
  <animateMotion begin="-2.8890870105916377s" dur="10s" repeatCount="indefinite">
    <mpath xlink:href="#path5"></mpath>
  </animateMotion>
</circle><path id="path6" d="M 169.34076092113267 253.8323124624332
c 0 31.536530146149765 -7.716385035760048 9.058365041979188 -16.774750077739235 9.058365041979188
S 135.7912607656542 285.36884260858295 135.7912607656542 253.8323124624332
s 7.716385035760048 -9.058365041979188 16.774750077739235 -9.058365041979188
S 169.34076092113267 222.29578231628344 169.34076092113267 253.8323124624332
z" fill="none" stroke="none"></path>
<circle cx="0" cy="0" r="2.082227771913912" fill="#9df871">
  <animateMotion begin="-8.12692541585365s" dur="10s" repeatCount="indefinite">
    <mpath xlink:href="#path6"></mpath>
  </animateMotion>
</circle><path id="path7" d="M 231.80991124721436 16.639985162273522
c 0 27.002493749544417 -6.6069931514842715 7.7560354386989285 -14.3630285901832 7.7560354386989285
S 203.08385406684795 43.64247891181794 203.08385406684795 16.639985162273522
s 6.6069931514842715 -7.7560354386989285 14.3630285901832 -7.7560354386989285
S 231.80991124721436 -10.362508587270895 231.80991124721436 16.639985162273522
z" fill="none" stroke="none"></path>
<circle cx="0" cy="0" r="2.203381707848849" fill="#e0ff77">
  <animateMotion begin="-0.9997969680737717s" dur="10s" repeatCount="indefinite">
    <mpath xlink:href="#path7"></mpath>
  </animateMotion>
</circle><path id="path8" d="M 133.44430523028979 9.905025574535507
c 0 24.76680490155749 -6.059962901444917 7.113869493000556 -13.173832394445473 7.113869493000556
S 107.09664044139885 34.67183047609299 107.09664044139885 9.905025574535507
s 6.059962901444917 -7.113869493000556 13.173832394445473 -7.113869493000556
S 133.44430523028979 -14.861779327021981 133.44430523028979 9.905025574535507
z" fill="none" stroke="none"></path>
<circle cx="0" cy="0" r="2.3891879660414035" fill="#9df871">
  <animateMotion begin="-6.471440330095344s" dur="10s" repeatCount="indefinite">
    <mpath xlink:href="#path8"></mpath>
  </animateMotion>
</circle><path id="path9" d="M 463.8694415736715 121.66175340171954
c 0 35.29581881218973 -8.636210985961316 10.138160722650241 -18.774371708611557 10.138160722650241
S 426.3206981564484 156.95757221390926 426.3206981564484 121.66175340171954
s 8.636210985961316 -10.138160722650241 18.774371708611557 -10.138160722650241
S 463.8694415736715 86.36593458952981 463.8694415736715 121.66175340171954
z" fill="none" stroke="none"></path>
<circle cx="0" cy="0" r="2.2495082007742258" fill="#e0ff77">
  <animateMotion begin="-8.94354384518116s" dur="10s" repeatCount="indefinite">
    <mpath xlink:href="#path9"></mpath>
  </animateMotion>
</circle><path id="path10" d="M 149.5483080363468 6.709688123810258
c 0 27.900795609078106 -6.826790414987195 8.014058313245839 -14.840848728233034 8.014058313245839
S 119.86661057988076 34.61048373288836 119.86661057988076 6.709688123810258
s 6.826790414987195 -8.014058313245839 14.840848728233034 -8.014058313245839
S 149.5483080363468 -21.19110748526785 149.5483080363468 6.709688123810258
z" fill="none" stroke="none"></path>
<circle cx="0" cy="0" r="2.245686403213279" fill="#de9dd6">
  <animateMotion begin="-9.57789265580368s" dur="10s" repeatCount="indefinite">
    <mpath xlink:href="#path10"></mpath>
  </animateMotion>
</circle><path id="path11" d="M 105.03867475210734 122.67237085659382
c 0 36.98869891260915 -9.050426329680962 10.624413517451567 -19.674839847132528 10.624413517451567
S 65.68899505784228 159.66106976920298 65.68899505784228 122.67237085659382
s 9.050426329680962 -10.624413517451567 19.674839847132528 -10.624413517451567
S 105.03867475210734 85.68367194398466 105.03867475210734 122.67237085659382
z" fill="none" stroke="none"></path>
<circle cx="0" cy="0" r="1.391687069891048" fill="#ff708e">
  <animateMotion begin="-9.941613137893084s" dur="10s" repeatCount="indefinite">
    <mpath xlink:href="#path11"></mpath>
  </animateMotion>
</circle><path id="path12" d="M 493.15818691136366 290.3369569889273
c 0 33.20628809495306 -8.124942831743834 9.537976367699283 -17.662919199443117 9.537976367699283
S 457.8323485124774 323.5432450838803 457.8323485124774 290.3369569889273
s 8.124942831743834 -9.537976367699283 17.662919199443117 -9.537976367699283
S 493.15818691136366 257.13066889397425 493.15818691136366 290.3369569889273
z" fill="none" stroke="none"></path>
<circle cx="0" cy="0" r="1.3170580705019075" fill="#de9dd6">
  <animateMotion begin="-5.361679384130131s" dur="10s" repeatCount="indefinite">
    <mpath xlink:href="#path12"></mpath>
  </animateMotion>
</circle><path id="path13" d="M 316.3154509769014 262.9409847737163
c 0 25.480201565041153 -6.234517404212196 7.318781300596926 -13.553298704809123 7.318781300596926
S 289.2088535672831 288.4211863387575 289.2088535672831 262.9409847737163
s 6.234517404212196 -7.318781300596926 13.553298704809123 -7.318781300596926
S 316.3154509769014 237.46078320867517 316.3154509769014 262.9409847737163
z" fill="none" stroke="none"></path>
<circle cx="0" cy="0" r="1.5608388472316914" fill="#de9dd6">
  <animateMotion begin="-0.17235681240829415s" dur="10s" repeatCount="indefinite">
    <mpath xlink:href="#path13"></mpath>
  </animateMotion>
</circle><path id="path14" d="M 116.18400574472392 43.191804270284464
c 0 37.59709525437231 -9.199289264367692 10.79916565817077 -19.998454922538464 10.79916565817077
S 76.18709589964698 80.78889952465678 76.18709589964698 43.191804270284464
s 9.199289264367692 -10.79916565817077 19.998454922538464 -10.79916565817077
S 116.18400574472392 5.5947090159121515 116.18400574472392 43.191804270284464
z" fill="none" stroke="none"></path>
<circle cx="0" cy="0" r="2.463794650094811" fill="#51cacc">
  <animateMotion begin="-0.4571320393428291s" dur="10s" repeatCount="indefinite">
    <mpath xlink:href="#path14"></mpath>
  </animateMotion>
</circle><path id="path15" d="M 23.315875251798584 208.11370895551562
c 0 31.54940661573318 -7.719535661296415 9.062063602391445 -16.78159926368786 9.062063602391445
S -10.247323275577134 239.6631155712488 -10.247323275577134 208.11370895551562
s 7.719535661296415 -9.062063602391445 16.78159926368786 -9.062063602391445
S 23.315875251798584 176.56430233978244 23.315875251798584 208.11370895551562
z" fill="none" stroke="none"></path>
<circle cx="0" cy="0" r="1.7058778855670713" fill="#51cacc">
  <animateMotion begin="-4.8875509532644035s" dur="10s" repeatCount="indefinite">
    <mpath xlink:href="#path15"></mpath>
  </animateMotion>
</circle><path id="path16" d="M 40.95202110096157 7.304432678865973
c 0 36.41028463619252 -8.90889943225987 10.458273246565938 -19.36717267882581 10.458273246565938
S 2.2176757433099503 43.71471731505849 2.2176757433099503 7.304432678865973
s 8.90889943225987 -10.458273246565938 19.36717267882581 -10.458273246565938
S 40.95202110096157 -29.10585195732655 40.95202110096157 7.304432678865973
z" fill="none" stroke="none"></path>
<circle cx="0" cy="0" r="1.8976864504681223" fill="#9df871">
  <animateMotion begin="-2.850853508208444s" dur="10s" repeatCount="indefinite">
    <mpath xlink:href="#path16"></mpath>
  </animateMotion>
</circle><path id="path17" d="M 108.20287485530204 14.650982511973893
c 0 23.39681005269339 -5.724751395871786 6.720360334284272 -12.445111730156057 6.720360334284272
S 83.31265139498993 38.04779256466728 83.31265139498993 14.650982511973893
s 5.724751395871786 -6.720360334284272 12.445111730156057 -6.720360334284272
S 108.20287485530204 -8.745827540719496 108.20287485530204 14.650982511973893
z" fill="none" stroke="none"></path>
<circle cx="0" cy="0" r="2.4850003814325277" fill="#9df871">
  <animateMotion begin="-4.148101001228919s" dur="10s" repeatCount="indefinite">
    <mpath xlink:href="#path17"></mpath>
  </animateMotion>
</circle><path id="path18" d="M 365.48747967619227 206.62154691824378
c 0 32.80979658508445 -8.027928951669598 9.424090508481703 -17.4520194601513 9.424090508481703
S 330.5834407558897 239.43134350332824 330.5834407558897 206.62154691824378
s 8.027928951669598 -9.424090508481703 17.4520194601513 -9.424090508481703
S 365.48747967619227 173.81175033315932 365.48747967619227 206.62154691824378
z" fill="none" stroke="none"></path>
<circle cx="0" cy="0" r="1.5601274676707528" fill="#de9dd6">
  <animateMotion begin="-0.23429273132084205s" dur="10s" repeatCount="indefinite">
    <mpath xlink:href="#path18"></mpath>
  </animateMotion>
</circle><path id="path19" d="M 218.9171050079813 159.1974803717044
c 0 24.162992050877282 -5.912221459257206 6.9404338869541125 -12.85265534621132 6.9404338869541125
S 193.21179431555865 183.36047242258167 193.21179431555865 159.1974803717044
s 5.912221459257206 -6.9404338869541125 12.85265534621132 -6.9404338869541125
S 218.9171050079813 135.0344883208271 218.9171050079813 159.1974803717044
z" fill="none" stroke="none"></path>
<circle cx="0" cy="0" r="1.9542726247288602" fill="#de9dd6">
  <animateMotion begin="-2.3923815793194514s" dur="10s" repeatCount="indefinite">
    <mpath xlink:href="#path19"></mpath>
  </animateMotion>
</circle><path id="path20" d="M 343.4557715812017 173.46998816743098
c 0 33.55271404418322 -8.209706627832063 9.637481693541988 -17.84718832137405 9.637481693541988
S 307.7613949384536 207.02270221161422 307.7613949384536 173.46998816743098
s 8.209706627832063 -9.637481693541988 17.84718832137405 -9.637481693541988
S 343.4557715812017 139.91727412324775 343.4557715812017 173.46998816743098
z" fill="none" stroke="none"></path>
<circle cx="0" cy="0" r="1.645036611712546" fill="#e0ff77">
  <animateMotion begin="-1.004980511849416s" dur="10s" repeatCount="indefinite">
    <mpath xlink:href="#path20"></mpath>
  </animateMotion>
</circle><path id="path21" d="M 303.11329849335146 22.422723818453463
c 0 19.235372010730146 -4.706527194114822 5.525053662656531 -10.231580856771354 5.525053662656531
S 282.65013677980875 41.65809582918361 282.65013677980875 22.422723818453463
s 4.706527194114822 -5.525053662656531 10.231580856771354 -5.525053662656531
S 303.11329849335146 3.187351807723317 303.11329849335146 22.422723818453463
z" fill="none" stroke="none"></path>
<circle cx="0" cy="0" r="1.4556832052383282" fill="#de9dd6">
  <animateMotion begin="-6.570953360428813s" dur="10s" repeatCount="indefinite">
    <mpath xlink:href="#path21"></mpath>
  </animateMotion>
</circle><path id="path22" d="M 311.5844760912005 37.51081218285577
c 0 33.094759366428676 -8.09765388753042 9.505941520144408 -17.603595407674828 9.505941520144408
S 276.3772852758508 70.60557154928445 276.3772852758508 37.51081218285577
s 8.09765388753042 -9.505941520144408 17.603595407674828 -9.505941520144408
S 311.5844760912005 4.416052816427097 311.5844760912005 37.51081218285577
z" fill="none" stroke="none"></path>
<circle cx="0" cy="0" r="2.1385537131606744" fill="#51cacc">
  <animateMotion begin="-9.378223999269615s" dur="10s" repeatCount="indefinite">
    <mpath xlink:href="#path22"></mpath>
  </animateMotion>
</circle><path id="path23" d="M 462.50850798482014 313.11464108180985
c 0 32.42450175444552 -7.933654684598372 9.313420716702439 -17.247075401300812 9.313420716702439
S 428.0143571822185 345.5391428362554 428.0143571822185 313.11464108180985
s 7.933654684598372 -9.313420716702439 17.247075401300812 -9.313420716702439
S 462.50850798482014 280.6901393273643 462.50850798482014 313.11464108180985
z" fill="none" stroke="none"></path>
<circle cx="0" cy="0" r="2.4483250297490673" fill="#51cacc">
  <animateMotion begin="-8.815892800592518s" dur="10s" repeatCount="indefinite">
    <mpath xlink:href="#path23"></mpath>
  </animateMotion>
</circle><path id="path24" d="M 227.7229255013396 94.27699554125904
c 0 30.131187698872868 -7.372524649724212 8.65470284967625 -16.02722749940046 8.65470284967625
S 195.6684705025387 124.4081832401319 195.6684705025387 94.27699554125904
s 7.372524649724212 -8.65470284967625 16.02722749940046 -8.65470284967625
S 227.7229255013396 64.14580784238618 227.7229255013396 94.27699554125904
z" fill="none" stroke="none"></path>
<circle cx="0" cy="0" r="2.1371652442667264" fill="#51cacc">
  <animateMotion begin="-3.1452554116307208s" dur="10s" repeatCount="indefinite">
    <mpath xlink:href="#path24"></mpath>
  </animateMotion>
</circle><path id="path25" d="M 459.5980390510992 209.89972352312117
c 0 21.157854491865088 -5.176921843754223 6.077256077450611 -11.254177921204834 6.077256077450611
S 437.08968320868956 231.05757801498626 437.08968320868956 209.89972352312117
s 5.176921843754223 -6.077256077450611 11.254177921204834 -6.077256077450611
S 459.5980390510992 188.74186903125607 459.5980390510992 209.89972352312117
z" fill="none" stroke="none"></path>
<circle cx="0" cy="0" r="1.7829209358902753" fill="#e0ff77">
  <animateMotion begin="-0.10336099729749249s" dur="10s" repeatCount="indefinite">
    <mpath xlink:href="#path25"></mpath>
  </animateMotion>
</circle><path id="path26" d="M 312.0412297927454 45.42832264093114
c 0 27.685728983568055 -6.77416773002197 7.952283856982313 -14.726451587004284 7.952283856982313
S 282.5883266187368 73.1140516244992 282.5883266187368 45.42832264093114
s 6.77416773002197 -7.952283856982313 14.726451587004284 -7.952283856982313
S 312.0412297927454 17.742593657363088 312.0412297927454 45.42832264093114
z" fill="none" stroke="none"></path>
<circle cx="0" cy="0" r="1.316226384684316" fill="#ff708e">
  <animateMotion begin="-4.856569490153639s" dur="10s" repeatCount="indefinite">
    <mpath xlink:href="#path26"></mpath>
  </animateMotion>
</circle><path id="path27" d="M 331.74703296459916 235.72105234040893
c 0 26.891560039256476 -6.5798497968393495 7.724171500637499 -14.304021297476847 7.724171500637499
S 303.1389903696455 262.6126123796654 303.1389903696455 235.72105234040893
s 6.5798497968393495 -7.724171500637499 14.304021297476847 -7.724171500637499
S 331.74703296459916 208.82949230115247 331.74703296459916 235.72105234040893
z" fill="none" stroke="none"></path>
<circle cx="0" cy="0" r="1.9515728987771497" fill="#ff708e">
  <animateMotion begin="-1.313898784688432s" dur="10s" repeatCount="indefinite">
    <mpath xlink:href="#path27"></mpath>
  </animateMotion>
</circle><path id="path28" d="M 76.57901375438327 101.93374336146908
c 0 24.187641876505158 -5.918252799570411 6.947514156017439 -12.86576695558785 6.947514156017439
S 50.84747984320757 126.12138523797424 50.84747984320757 101.93374336146908
s 5.918252799570411 -6.947514156017439 12.86576695558785 -6.947514156017439
S 76.57901375438327 77.74610148496393 76.57901375438327 101.93374336146908
z" fill="none" stroke="none"></path>
<circle cx="0" cy="0" r="1.6632805454440724" fill="#9df871">
  <animateMotion begin="-6.096114860834603s" dur="10s" repeatCount="indefinite">
    <mpath xlink:href="#path28"></mpath>
  </animateMotion>
</circle><path id="path29" d="M 69.8004165524507 194.24742854893884
c 0 22.835554581182002 -5.587422929438149 6.559148656296958 -12.146571585735106 6.559148656296958
S 45.50727338098049 217.08298313012085 45.50727338098049 194.24742854893884
s 5.587422929438149 -6.559148656296958 12.146571585735106 -6.559148656296958
S 69.8004165524507 171.41187396775683 69.8004165524507 194.24742854893884
z" fill="none" stroke="none"></path>
<circle cx="0" cy="0" r="2.2707182595345983" fill="#de9dd6">
  <animateMotion begin="-3.6882028575495984s" dur="10s" repeatCount="indefinite">
    <mpath xlink:href="#path29"></mpath>
  </animateMotion>
</circle></g>
</svg>
