<svg width="48" height="48" viewBox="0 0 48 48" fill="none" xmlns="http://www.w3.org/2000/svg">
<g clip-path="url(#clip0_656_111417)">
<path d="M23.9969 11.9993L44.7781 11.9993C42.6723 8.35067 39.643 5.3208 35.9947 3.21431C32.3465 1.10783 28.208 -0.00101313 23.9953 -0.000718732C19.7826 -0.000424334 15.6442 1.109 11.9963 3.21599C8.34835 5.32299 5.31945 8.35328 3.21413 12.0022L13.6048 29.9993L13.614 29.9969C12.557 28.1741 11.9992 26.1049 11.9968 23.9979C11.9945 21.8909 12.5476 19.8204 13.6005 17.9953C14.6534 16.1702 16.1689 14.655 17.9941 13.6023C19.8193 12.5496 21.8898 11.9967 23.9969 11.9993V11.9993Z" fill="url(#paint0_linear_656_111417)"/>
<path d="M34.3945 29.9978L24.0039 47.9949C28.2166 47.9955 32.3552 46.8869 36.0036 44.7807C39.652 42.6745 42.6815 39.6449 44.7876 35.9964C46.8937 32.348 48.0021 28.2093 48.0014 23.9966C48.0006 19.7839 46.8908 15.6457 44.7834 11.998L24.0021 11.998L23.9996 12.0072C26.1066 12.0032 28.1775 12.5547 30.0034 13.6061C31.8293 14.6576 33.3458 16.1719 34.3999 17.9963C35.4541 19.8207 36.0086 21.8907 36.0077 23.9977C36.0067 26.1048 35.4503 28.1743 34.3945 29.9978V29.9978Z" fill="url(#paint1_linear_656_111417)"/>
<path d="M13.6086 30.0032L3.218 12.0061C1.11112 15.6541 0.00183548 19.7925 0.00167848 24.0052C0.00152149 28.2179 1.1105 32.3564 3.2171 36.0046C5.32371 39.6527 8.35368 42.6819 12.0024 44.7876C15.651 46.8933 19.7898 48.0013 24.0025 48.0001L34.3931 30.003L34.3864 29.9962C33.3364 31.823 31.8233 33.3406 29.9997 34.3962C28.1762 35.4518 26.1066 36.0079 23.9995 36.0086C21.8925 36.0093 19.8225 35.4546 17.9982 34.4002C16.1739 33.3459 14.6599 31.8293 13.6086 30.0032V30.0032Z" fill="url(#paint2_linear_656_111417)"/>
<path d="M24 36C30.6274 36 36 30.6274 36 24C36 17.3726 30.6274 12 24 12C17.3726 12 12 17.3726 12 24C12 30.6274 17.3726 36 24 36Z" fill="white"/>
<path d="M24 33.5C29.2467 33.5 33.5 29.2467 33.5 24C33.5 18.7533 29.2467 14.5 24 14.5C18.7533 14.5 14.5 18.7533 14.5 24C14.5 29.2467 18.7533 33.5 24 33.5Z" fill="#1A73E8"/>
</g>
<defs>
<linearGradient id="paint0_linear_656_111417" x1="42.1856" y1="10.5017" x2="21.4036" y2="46.4971" gradientUnits="userSpaceOnUse">
<stop offset="0%" stop-color="#D93025"/>
<stop offset="1" stop-color="#EA4335"/>
</linearGradient>
<linearGradient id="paint1_linear_656_111417" x1="46.1458" y1="14.9995" x2="4.58183" y2="14.9994" gradientUnits="userSpaceOnUse">
<stop offset="0%" stop-color="#FCC934"/>
<stop offset="1" stop-color="#FBBC04"/>
</linearGradient>
<linearGradient id="paint2_linear_656_111417" x1="26.5981" y1="46.5016" x2="5.8161" y2="10.5061" gradientUnits="userSpaceOnUse">
<stop offset="0%" stop-color="#1E8E3E"/>
<stop offset="1" stop-color="#34A853"/>
</linearGradient>
<clipPath id="clip0_656_111417">
<rect width="48" height="48" fill="white"/>
</clipPath>
</defs>
</svg>
