<svg width="48" height="46" viewBox="0 0 48 46" fill="none" xmlns="http://www.w3.org/2000/svg">
<path d="M44.0124 15.6768C43.082 13.455 41.2214 11.0635 39.7547 10.3137C40.7991 12.3334 41.5245 14.5024 41.9054 16.7439V16.7822C39.514 10.8008 35.4479 8.3929 32.1261 3.13929C31.951 2.87661 31.7868 2.60846 31.6226 2.32936C31.5296 2.16518 31.4584 2.0229 31.3873 1.89156C31.2489 1.62399 31.1424 1.34114 31.0699 1.04879C31.0701 1.03599 31.0659 1.0235 31.0579 1.0135C31.0499 1.0035 31.0386 0.996625 31.0261 0.994066C31.0085 0.987329 30.989 0.987329 30.9714 0.994066V1.00501C30.9714 1.01596 30.955 1.00501 30.955 1.00501V0.994066C25.6357 4.11339 23.8243 9.89236 23.6601 12.7764C21.5314 12.924 19.4965 13.7098 17.8209 15.031C17.6462 14.8826 17.4635 14.7438 17.2737 14.6151C16.7894 12.9185 16.7705 11.1227 17.219 9.41625C15.2598 10.3649 13.5192 11.7104 12.1076 13.3674C11.2594 12.3057 11.3196 8.79239 11.3689 8.05907C11.1192 8.15759 10.8807 8.28234 10.6574 8.4312C9.913 8.96138 9.21709 9.55657 8.57788 10.2098C7.85601 10.947 7.19701 11.7433 6.60778 12.5903C5.24432 14.523 4.27714 16.7066 3.76207 19.015L3.72376 19.1628C3.68546 19.3434 3.5377 20.2792 3.51581 20.4762V20.5309C3.33189 21.4955 3.21849 22.4722 3.17651 23.4532L3.17651 23.5627C3.18507 28.8705 5.18331 33.9822 8.77672 37.8887C12.3701 41.7951 17.2975 44.2124 22.5862 44.6632C27.8748 45.1141 33.1403 43.5658 37.3431 40.324C41.5459 37.0821 44.3806 32.3824 45.2874 27.1526C45.3258 26.879 45.3531 26.6054 45.386 26.3318C45.8253 22.7216 45.355 19.0589 44.0178 15.6768H44.0124ZM19.5667 32.2749C19.6652 32.3296 19.7582 32.3844 19.8567 32.4227L19.8731 32.4336C19.7746 32.3825 19.6743 32.3278 19.5721 32.2694L19.5667 32.2749ZM41.9109 16.7768V16.7604V16.7822V16.7768Z" fill="url(#paint0_linear_657_111428)"/>
<path d="M44.0124 15.6768C43.082 13.4549 41.2214 11.0635 39.7547 10.3137C40.7991 12.3333 41.5245 14.5024 41.9054 16.7439V16.7877C43.5416 21.4658 43.3063 26.5951 41.2487 31.1038C38.8189 36.3191 32.9305 41.6657 23.7203 41.403C13.7713 41.1294 5.00433 33.7415 3.36258 24.0661C3.06706 22.5338 3.36258 21.7677 3.51581 20.5254C3.3121 21.4869 3.19851 22.4652 3.17651 23.4477V23.5572C3.18507 28.865 5.18331 33.9767 8.77672 37.8832C12.3701 41.7896 17.2975 44.2069 22.5862 44.6578C27.8748 45.1086 33.1403 43.5603 37.3431 40.3185C41.5459 37.0766 44.3806 32.3769 45.2874 27.1472C45.3258 26.8735 45.3531 26.5999 45.386 26.3263C45.8253 22.7161 45.355 19.0534 44.0178 15.6713L44.0124 15.6768Z" fill="url(#paint1_radial_657_111428)"/>
<path d="M44.0124 15.6768C43.082 13.4549 41.2214 11.0635 39.7547 10.3137C40.7991 12.3333 41.5245 14.5024 41.9054 16.7439V16.7877C43.5416 21.4658 43.3063 26.5951 41.2487 31.1038C38.8189 36.3191 32.9305 41.6657 23.7203 41.403C13.7713 41.1294 5.00433 33.7415 3.36258 24.0661C3.06706 22.5338 3.36258 21.7677 3.51581 20.5254C3.3121 21.4869 3.19851 22.4652 3.17651 23.4477V23.5572C3.18507 28.865 5.18331 33.9767 8.77672 37.8832C12.3701 41.7896 17.2975 44.2069 22.5862 44.6578C27.8748 45.1086 33.1403 43.5603 37.3431 40.3185C41.5459 37.0766 44.3806 32.3769 45.2874 27.1472C45.3258 26.8735 45.3531 26.5999 45.386 26.3263C45.8253 22.7161 45.355 19.0534 44.0178 15.6713L44.0124 15.6768Z" fill="url(#paint2_radial_657_111428)"/>
<path d="M33.7022 18.1666C33.7569 18.1995 33.7897 18.2323 33.8335 18.2651C33.3009 17.3194 32.6377 16.4536 31.8634 15.6931C25.2745 9.10415 30.1396 1.39886 30.9604 1.01031V0.993896C25.6412 4.11323 23.8298 9.89219 23.6656 12.7762C23.9119 12.7598 24.1581 12.7434 24.4098 12.7434C26.2991 12.7461 28.1539 13.2488 29.7859 14.2003C31.418 15.1519 32.7692 16.5184 33.7022 18.1612V18.1666Z" fill="url(#paint3_radial_657_111428)"/>
<path d="M24.4263 19.4912C24.3879 20.0111 22.5273 21.8334 21.8706 21.8334C15.8399 21.8334 14.8658 25.4781 14.8658 25.4781C15.1285 28.5537 17.2737 31.082 19.8567 32.4282L20.2179 32.5924C20.4258 32.6836 20.6338 32.7693 20.8418 32.8496C21.7292 33.1651 22.6589 33.3459 23.5999 33.3859C34.1728 33.8784 36.2195 20.7444 28.5908 16.9301C30.3903 16.6983 32.2118 17.143 33.7021 18.1778C32.7691 16.5351 31.418 15.1685 29.7859 14.217C28.1539 13.2654 26.299 12.7627 24.4098 12.76C24.1581 12.76 23.9173 12.771 23.6656 12.7874C21.5368 12.935 19.502 13.7208 17.8264 15.042C18.1548 15.3157 18.5159 15.6769 19.2876 16.4375C20.7268 17.8604 24.4153 19.3215 24.4317 19.5021L24.4263 19.4912Z" fill="url(#paint4_radial_657_111428)"/>
<path d="M24.4263 19.4912C24.3879 20.0111 22.5273 21.8334 21.8706 21.8334C15.8399 21.8334 14.8658 25.4781 14.8658 25.4781C15.1285 28.5537 17.2737 31.082 19.8567 32.4282L20.2179 32.5924C20.4258 32.6836 20.6338 32.7693 20.8418 32.8496C21.7292 33.1651 22.6589 33.3459 23.5999 33.3859C34.1728 33.8784 36.2195 20.7444 28.5908 16.9301C30.3903 16.6983 32.2118 17.143 33.7021 18.1778C32.7691 16.5351 31.418 15.1685 29.7859 14.217C28.1539 13.2654 26.299 12.7627 24.4098 12.76C24.1581 12.76 23.9173 12.771 23.6656 12.7874C21.5368 12.935 19.502 13.7208 17.8264 15.042C18.1548 15.3157 18.5159 15.6769 19.2876 16.4375C20.7268 17.8604 24.4153 19.3215 24.4317 19.5021L24.4263 19.4912Z" fill="url(#paint5_radial_657_111428)"/>
<path d="M16.8414 14.3251C17.0056 14.4345 17.1533 14.5276 17.2792 14.6151C16.7949 12.9185 16.776 11.1227 17.2245 9.41626C15.2653 10.3649 13.5247 11.7104 12.1132 13.3674C12.2226 13.3674 15.2872 13.3127 16.8414 14.3196V14.3251Z" fill="url(#paint6_radial_657_111428)"/>
<path d="M3.36806 24.0662C5.00981 33.7361 13.7658 41.124 23.7258 41.4031C32.936 41.6658 38.819 36.3137 41.2487 31.1038C43.3063 26.5952 43.5416 21.4658 41.9054 16.7878V16.7659V16.744L41.9164 16.7823C42.6607 21.6966 40.1652 26.4522 36.2578 29.6701L36.2414 29.6974C28.6346 35.8978 21.3562 33.4406 19.8786 32.4337C19.7692 32.3862 19.6652 32.3352 19.5667 32.2804C15.1339 30.1626 13.2952 26.1184 13.6892 22.6488C12.6362 22.6647 11.6011 22.3749 10.7094 21.8144C9.81777 21.254 9.10776 20.447 8.66545 19.4912C9.83053 18.7777 11.1589 18.3745 12.524 18.3199C13.8891 18.2653 15.2454 18.5611 16.4638 19.1793C18.9738 20.3174 21.8293 20.4294 24.4208 19.4912C24.4098 19.3161 20.7214 17.8494 19.2766 16.4266C18.5105 15.6714 18.1493 15.3102 17.821 15.0366C17.6462 14.8882 17.4635 14.7493 17.2737 14.6207C17.1478 14.5331 17.011 14.4401 16.8359 14.3306C15.2927 13.3237 12.2171 13.3784 12.1131 13.3784H12.1022C11.2649 12.3167 11.3196 8.80338 11.3689 8.07007C11.1192 8.16859 10.8807 8.29333 10.6574 8.4422C9.91278 8.97411 9.21686 9.57114 8.57789 10.2262C7.85057 10.9611 7.18608 11.7555 6.59137 12.6013C5.22791 14.534 4.26073 16.7176 3.74566 19.026C3.73472 19.0698 2.97951 22.3643 3.35164 24.0717L3.36806 24.0662Z" fill="url(#paint7_radial_657_111428)"/>
<path d="M31.8689 15.6932C32.6432 16.4537 33.3065 17.3196 33.839 18.2653C33.9485 18.3583 34.0579 18.4459 34.1564 18.528C38.9722 22.9607 36.4549 29.2267 36.2633 29.6755C40.1652 26.4576 42.6662 21.702 41.9164 16.7877C39.5085 10.8063 35.4479 8.39837 32.1206 3.14476C31.9565 2.88208 31.7923 2.61393 31.6281 2.33483C31.5351 2.17066 31.4639 2.02837 31.3928 1.89703C31.2522 1.62797 31.1438 1.34326 31.0699 1.04879C31.0702 1.03599 31.0659 1.0235 31.0579 1.0135C31.0499 1.0035 31.0387 0.996625 31.0261 0.994066C31.0085 0.987329 30.989 0.987329 30.9714 0.994066V1.00501C30.9714 1.01596 30.955 1.00501 30.955 1.00501C30.1341 1.39903 25.2636 9.10432 31.8634 15.6932H31.8689Z" fill="url(#paint8_radial_657_111428)"/>
<path d="M34.1509 18.5279C34.0579 18.4404 33.9484 18.3528 33.8335 18.2652L33.7022 18.1667C32.2096 17.1325 30.386 16.6898 28.5854 16.9245C36.214 20.7443 34.1673 33.8892 23.5944 33.3858C22.6556 33.347 21.7277 33.1681 20.8418 32.8549C20.6338 32.782 20.4259 32.6981 20.2179 32.6032C20.0975 32.5485 19.9826 32.4938 19.8622 32.439H19.8786C21.3562 33.446 28.6346 35.9086 36.2523 29.7028L36.2633 29.6809C36.4548 29.2431 38.9722 22.9661 34.1618 18.5389L34.1509 18.5279Z" fill="url(#paint9_radial_657_111428)"/>
<path d="M14.8603 25.478C14.8603 25.478 15.8454 21.8333 21.8651 21.8333C22.5218 21.8333 24.3825 20.0109 24.4263 19.4801C21.8323 20.423 18.9722 20.313 16.4583 19.1736C15.2399 18.5555 13.8836 18.2597 12.5185 18.3143C11.1534 18.3689 9.82505 18.7721 8.65997 19.4856C9.10385 20.4421 9.8159 21.2491 10.7096 21.8087C11.6034 22.3682 12.6404 22.6562 13.6947 22.6377C13.2952 26.1073 15.1285 30.1515 19.5667 32.2694C19.6652 32.3241 19.7582 32.3679 19.8567 32.4171C17.2682 31.0763 15.1285 28.5481 14.8603 25.467V25.478Z" fill="url(#paint10_radial_657_111428)"/>
<path d="M44.0124 15.6768C43.082 13.455 41.2214 11.0635 39.7548 10.3137C40.7991 12.3334 41.5246 14.5024 41.9055 16.7439V16.7822C39.514 10.8008 35.4479 8.3929 32.1261 3.13929C31.951 2.87661 31.7868 2.60846 31.6226 2.32936C31.5296 2.16518 31.4584 2.0229 31.3873 1.89156C31.249 1.62399 31.1424 1.34114 31.0699 1.04879C31.0702 1.03599 31.0659 1.0235 31.0579 1.0135C31.0499 1.0035 31.0387 0.996625 31.0261 0.994066C31.0085 0.987329 30.989 0.987329 30.9714 0.994066V1.00501C30.9714 1.01596 30.955 1.00501 30.955 1.00501V0.994066C25.6357 4.11339 23.8243 9.89236 23.6601 12.7764C23.9064 12.76 24.1527 12.7435 24.4044 12.7435C26.2936 12.7463 28.1484 13.2489 29.7805 14.2005C31.4125 15.152 32.7637 16.5186 33.6967 18.1613C32.2049 17.1303 30.3835 16.6896 28.5854 16.9245C36.2141 20.7443 34.1673 33.8893 23.5945 33.3858C22.6537 33.3476 21.724 33.1687 20.8363 32.855C20.6284 32.782 20.4204 32.6981 20.2124 32.6033L19.8513 32.4391H19.8677C19.7692 32.3917 19.6688 32.3406 19.5667 32.2859C19.6652 32.3406 19.7582 32.3953 19.8567 32.4336C17.2682 31.0929 15.1285 28.5646 14.8603 25.4835C14.8603 25.4835 15.8454 21.8443 21.8651 21.8443C22.5218 21.8443 24.3825 20.022 24.4263 19.4911C24.4153 19.327 20.7269 17.8494 19.2821 16.4375C18.516 15.6713 18.1493 15.3156 17.8264 15.042C17.6517 14.8936 17.469 14.7547 17.2792 14.6261C16.7949 12.9294 16.776 11.1337 17.2245 9.4272C15.2653 10.3758 13.5247 11.7213 12.1131 13.3783C11.2649 12.3167 11.3251 8.80333 11.3743 8.07002C11.1247 8.16854 10.8862 8.29328 10.6629 8.44215C9.91849 8.97232 9.22258 9.56751 8.58337 10.2207C7.8615 10.958 7.2025 11.7542 6.61327 12.6013C5.24981 14.5339 4.28263 16.7175 3.76756 19.026L3.72378 19.1628C3.68548 19.3434 3.50488 20.2956 3.47752 20.4981C3.31428 21.476 3.21012 22.4628 3.16559 23.4532V23.5627C3.17415 28.8705 5.17238 33.9822 8.76579 37.8887C12.3592 41.7951 17.2866 44.2124 22.5753 44.6632C27.8639 45.1141 33.1294 43.5658 37.3322 40.324C41.535 37.0821 44.3696 32.3824 45.2765 27.1526C45.3148 26.879 45.3422 26.6054 45.375 26.3318C45.8143 22.7216 45.344 19.0589 44.0069 15.6768H44.0124Z" fill="url(#paint11_linear_657_111428)"/>
<defs>
<linearGradient id="paint0_linear_657_111428" x1="41.224" y1="7.77041" x2="4.923" y2="40.5588" gradientUnits="userSpaceOnUse">
<stop offset="0.048" stop-color="#FFF44F"/>
<stop offset="0.111" stop-color="#FFE847"/>
<stop offset="0.225" stop-color="#FFC830"/>
<stop offset="0.368" stop-color="#FF980E"/>
<stop offset="0.401" stop-color="#FF8B16"/>
<stop offset="0.462" stop-color="#FF672A"/>
<stop offset="0.534" stop-color="#FF3647"/>
<stop offset="0.705" stop-color="#E31587"/>
</linearGradient>
<radialGradient id="paint1_radial_657_111428" cx="0" cy="0" r="1" gradientUnits="userSpaceOnUse" gradientTransform="translate(40.2872 5.85308) scale(44.2162 44.2162)">
<stop offset="0.129" stop-color="#FFBD4F"/>
<stop offset="0.186" stop-color="#FFAC31"/>
<stop offset="0.247" stop-color="#FF9D17"/>
<stop offset="0.283" stop-color="#FF980E"/>
<stop offset="0.403" stop-color="#FF563B"/>
<stop offset="0.467" stop-color="#FF3750"/>
<stop offset="0.71" stop-color="#F5156C"/>
<stop offset="0.782" stop-color="#EB0878"/>
<stop offset="0.86" stop-color="#E50080"/>
</radialGradient>
<radialGradient id="paint2_radial_657_111428" cx="0" cy="0" r="1" gradientUnits="userSpaceOnUse" gradientTransform="translate(24.1302 23.9299) scale(44.2162 44.2162)">
<stop offset="0.3" stop-color="#960E18"/>
<stop offset="0.351" stop-color="#B11927" stop-opacity="0.74"/>
<stop offset="0.435" stop-color="#DB293D" stop-opacity="0.343"/>
<stop offset="0.497" stop-color="#F5334B" stop-opacity="0.094"/>
<stop offset="0.53" stop-color="#FF3750" stop-opacity="0"/>
</radialGradient>
<radialGradient id="paint3_radial_657_111428" cx="0" cy="0" r="1" gradientUnits="userSpaceOnUse" gradientTransform="translate(29.461 -4.18145) scale(32.0328 32.0328)">
<stop offset="0.132" stop-color="#FFF44F"/>
<stop offset="0.252" stop-color="#FFDC3E"/>
<stop offset="0.506" stop-color="#FF9D12"/>
<stop offset="0.526" stop-color="#FF980E"/>
</radialGradient>
<radialGradient id="paint4_radial_657_111428" cx="0" cy="0" r="1" gradientUnits="userSpaceOnUse" gradientTransform="translate(19.2394 35.4797) scale(21.0533 21.0533)">
<stop offset="0.353" stop-color="#3A8EE6"/>
<stop offset="0.472" stop-color="#5C79F0"/>
<stop offset="0.669" stop-color="#9059FF"/>
<stop offset="1" stop-color="#C139E6"/>
</radialGradient>
<radialGradient id="paint5_radial_657_111428" cx="0" cy="0" r="1" gradientUnits="userSpaceOnUse" gradientTransform="translate(26.5464 20.3062) rotate(-13.5916) scale(11.1623 13.0683)">
<stop offset="0.206" stop-color="#9059FF" stop-opacity="0"/>
<stop offset="0.278" stop-color="#8C4FF3" stop-opacity="0.064"/>
<stop offset="0.747" stop-color="#7716A8" stop-opacity="0.45"/>
<stop offset="0.975" stop-color="#6E008B" stop-opacity="0.6"/>
</radialGradient>
<radialGradient id="paint6_radial_657_111428" cx="0" cy="0" r="1" gradientUnits="userSpaceOnUse" gradientTransform="translate(23.572 4.0439) scale(15.1457 15.1457)">
<stop offset="0%" stop-color="#FFE226"/>
<stop offset="0.121" stop-color="#FFDB27"/>
<stop offset="0.295" stop-color="#FFC82A"/>
<stop offset="0.502" stop-color="#FFA930"/>
<stop offset="0.732" stop-color="#FF7E37"/>
<stop offset="0.792" stop-color="#FF7139"/>
</radialGradient>
<radialGradient id="paint7_radial_657_111428" cx="0" cy="0" r="1" gradientUnits="userSpaceOnUse" gradientTransform="translate(35.4769 -5.56249) scale(64.6199 64.6199)">
<stop offset="0.113" stop-color="#FFF44F"/>
<stop offset="0.456" stop-color="#FF980E"/>
<stop offset="0.622" stop-color="#FF5634"/>
<stop offset="0.716" stop-color="#FF3647"/>
<stop offset="0.904" stop-color="#E31587"/>
</radialGradient>
<radialGradient id="paint8_radial_657_111428" cx="0" cy="0" r="1" gradientUnits="userSpaceOnUse" gradientTransform="translate(30.0305 -1.96954) rotate(83.976) scale(47.3615 31.0829)">
<stop offset="0%" stop-color="#FFF44F"/>
<stop offset="0.06" stop-color="#FFE847"/>
<stop offset="0.168" stop-color="#FFC830"/>
<stop offset="0.304" stop-color="#FF980E"/>
<stop offset="0.356" stop-color="#FF8B16"/>
<stop offset="0.455" stop-color="#FF672A"/>
<stop offset="0.57" stop-color="#FF3647"/>
<stop offset="0.737" stop-color="#E31587"/>
</radialGradient>
<radialGradient id="paint9_radial_657_111428" cx="0" cy="0" r="1" gradientUnits="userSpaceOnUse" gradientTransform="translate(23.2152 9.65371) scale(40.3433 40.3433)">
<stop offset="0.137" stop-color="#FFF44F"/>
<stop offset="0.48" stop-color="#FF980E"/>
<stop offset="0.592" stop-color="#FF5634"/>
<stop offset="0.655" stop-color="#FF3647"/>
<stop offset="0.904" stop-color="#E31587"/>
</radialGradient>
<radialGradient id="paint10_radial_657_111428" cx="0" cy="0" r="1" gradientUnits="userSpaceOnUse" gradientTransform="translate(33.8647 12.0151) scale(44.1555 44.1555)">
<stop offset="0.094" stop-color="#FFF44F"/>
<stop offset="0.231" stop-color="#FFE141"/>
<stop offset="0.509" stop-color="#FFAF1E"/>
<stop offset="0.626" stop-color="#FF980E"/>
</radialGradient>
<linearGradient id="paint11_linear_657_111428" x1="40.7894" y1="7.59541" x2="9.8639" y2="36.529" gradientUnits="userSpaceOnUse">
<stop offset="0.167" stop-color="#FFF44F" stop-opacity="0.8"/>
<stop offset="0.266" stop-color="#FFF44F" stop-opacity="0.634"/>
<stop offset="0.489" stop-color="#FFF44F" stop-opacity="0.217"/>
<stop offset="0.6" stop-color="#FFF44F" stop-opacity="0"/>
</linearGradient>
</defs>
</svg>
