<svg width="48" height="48" viewBox="0 0 48 48" fill="none" xmlns="http://www.w3.org/2000/svg">
<g clip-path="url(#clip0_657_111443)">
<path d="M24 46.875C36.8406 46.875 47.25 36.4656 47.25 23.625C47.25 10.7844 36.8406 0.375 24 0.375C11.1594 0.375 0.75 10.7844 0.75 23.625C0.75 36.4656 11.1594 46.875 24 46.875Z" fill="url(#paint0_linear_657_111443)"/>
<path d="M24 45.1312C35.8776 45.1312 45.5063 35.5025 45.5063 23.6249C45.5063 11.7473 35.8776 2.11865 24 2.11865C12.1225 2.11865 2.49377 11.7473 2.49377 23.6249C2.49377 35.5025 12.1225 45.1312 24 45.1312Z" fill="url(#paint1_radial_657_111443)"/>
<path d="M24.0364 7.35022C23.891 7.35022 23.7639 7.24129 23.7639 7.09597V3.29966C23.7639 3.15435 23.891 3.04541 24.0364 3.04541C24.1817 3.04541 24.3088 3.15435 24.3088 3.29966V7.09597C24.2906 7.24129 24.1817 7.35022 24.0364 7.35022Z" fill="#F3F3F3"/>
<path d="M24.0364 7.36804C23.8729 7.36804 23.7457 7.24092 23.7457 7.09561V3.29929C23.7457 3.15398 23.8729 3.02686 24.0364 3.02686C24.1999 3.02686 24.327 3.15398 24.327 3.29929V7.09561C24.327 7.24092 24.1817 7.36804 24.0364 7.36804ZM24.0364 3.06304C23.9092 3.06304 23.7821 3.17217 23.7821 3.29929V7.09561C23.7821 7.22273 23.891 7.33186 24.0364 7.33186C24.1635 7.33186 24.2906 7.22273 24.2906 7.09561V3.29929C24.2726 3.17217 24.1635 3.06304 24.0364 3.06304Z" fill="white"/>
<path d="M25.8529 5.31558C25.7076 5.29739 25.5986 5.18846 25.5986 5.04314L25.7258 3.35377C25.7438 3.20864 25.8711 3.09952 26.0164 3.11771C26.1617 3.13589 26.2706 3.24502 26.2706 3.39033L26.1435 5.07952C26.1253 5.22483 25.9982 5.33358 25.8529 5.31558Z" fill="#F3F3F3"/>
<path d="M25.8529 5.33361C25.6894 5.31542 25.5804 5.1883 25.5804 5.04299L25.7076 3.35361C25.7258 3.20849 25.8529 3.08136 26.0164 3.09936C26.1797 3.11755 26.2888 3.24486 26.2888 3.38999L26.1617 5.07936C26.1435 5.24286 26.0164 5.3518 25.8529 5.33361ZM26.0164 3.13574C25.8893 3.13574 25.7619 3.22667 25.7619 3.3538L25.6348 5.04317C25.6348 5.17011 25.7258 5.27924 25.8711 5.29724C25.9982 5.29724 26.1253 5.20649 26.1253 5.07936L26.2524 3.38999C26.2524 3.26286 26.1437 3.15392 26.0164 3.13574Z" fill="white"/>
<path d="M27.2152 7.6768C27.0697 7.64042 26.979 7.5133 26.9972 7.36798L27.7419 3.64423C27.7783 3.49911 27.9054 3.40817 28.0507 3.44455C28.1961 3.48092 28.2868 3.60805 28.2686 3.75336L27.5239 7.47711C27.5057 7.60405 27.3604 7.69498 27.2151 7.6768H27.2152Z" fill="#F3F3F3"/>
<path d="M27.2152 7.69511C27.0515 7.65873 26.9608 7.51342 26.979 7.36811L27.7237 3.64436C27.7601 3.49923 27.9054 3.39011 28.0687 3.42648C28.2322 3.46286 28.3232 3.60817 28.305 3.75348L27.5602 7.47723C27.5239 7.62236 27.3785 7.7133 27.2152 7.69511ZM28.0687 3.46286C27.9416 3.44467 27.8145 3.51723 27.7781 3.64455L27.0335 7.3683C27.0154 7.49523 27.0879 7.62236 27.2332 7.65892C27.3604 7.67692 27.4875 7.60417 27.5239 7.47705L28.2686 3.75348C28.2868 3.60817 28.196 3.49923 28.0687 3.46286Z" fill="white"/>
<path d="M29.3948 6.04223C29.3602 6.03389 29.3276 6.01882 29.2988 5.99787C29.2701 5.97691 29.2457 5.9505 29.2272 5.92013C29.2086 5.88976 29.1963 5.85603 29.1908 5.82087C29.1853 5.78571 29.1867 5.74982 29.1951 5.71523L29.6492 4.08061C29.6854 3.93529 29.8307 3.86254 29.9761 3.89892C30.1214 3.93529 30.2123 4.08061 30.1759 4.22592L29.7218 5.86073C29.6854 6.00586 29.5401 6.07861 29.3948 6.04223Z" fill="#F3F3F3"/>
<path d="M29.3948 6.06027C29.2495 6.02389 29.1405 5.86039 29.1951 5.71527L29.6492 4.08027C29.6854 3.93514 29.8489 3.84421 29.9942 3.88058C30.1395 3.91696 30.2485 4.08046 30.1941 4.22558L29.74 5.86058C29.7036 6.00571 29.5583 6.09664 29.395 6.06027H29.3948ZM29.9942 3.93514C29.8671 3.89877 29.7218 3.97152 29.6854 4.09864L29.2315 5.73327C29.1951 5.86039 29.2677 5.98771 29.413 6.02389C29.5401 6.06027 29.6854 5.98771 29.7218 5.86058L30.1759 4.22558C30.1941 4.09864 30.1215 3.97152 29.9942 3.93496V3.93514Z" fill="white"/>
<path d="M30.2849 8.60358C30.1396 8.54902 30.0852 8.38552 30.1396 8.2584L31.5927 4.75271C31.6471 4.62558 31.8108 4.55283 31.9377 4.62558C32.0832 4.67996 32.1378 4.84365 32.0832 4.97058L30.6301 8.47627C30.5757 8.60358 30.412 8.67615 30.2851 8.60358H30.2849Z" fill="#F3F3F3"/>
<path d="M30.2848 8.62156C30.215 8.59496 30.1586 8.54177 30.128 8.47366C30.0974 8.40555 30.095 8.32806 30.1213 8.25818L31.5745 4.7525C31.629 4.60718 31.7925 4.55262 31.956 4.60718C32.0258 4.63378 32.0822 4.68697 32.1129 4.75508C32.1435 4.8232 32.1459 4.90068 32.1195 4.97056L30.6664 8.47625C30.5937 8.62156 30.4302 8.69412 30.2848 8.62156ZM31.9378 4.64356C31.8107 4.58918 31.6654 4.64356 31.6108 4.77068L30.1577 8.27637C30.1033 8.4035 30.1759 8.53062 30.303 8.58518C30.4302 8.63956 30.5755 8.58518 30.63 8.45806L32.0832 4.95237C32.1195 4.84325 32.065 4.69793 31.9378 4.64356Z" fill="white"/>
<path d="M32.7371 7.44117C32.6098 7.36842 32.5553 7.22311 32.6098 7.09599L33.3728 5.58849C33.4453 5.46117 33.5906 5.40661 33.7361 5.47936C33.8633 5.55211 33.9176 5.69742 33.8633 5.82436L33.1001 7.33205C33.0276 7.45917 32.8822 7.51392 32.7369 7.44117H32.7371Z" fill="#F3F3F3"/>
<path d="M32.7372 7.45902C32.5917 7.38627 32.5373 7.22277 32.6099 7.07746L33.3728 5.56996C33.4454 5.42446 33.6091 5.37008 33.7542 5.44265C33.8995 5.5154 33.9541 5.6789 33.8813 5.82421L33.1186 7.33171C33.0458 7.47702 32.8823 7.53158 32.737 7.45883L32.7372 7.45902ZM33.7362 5.47902C33.6089 5.42465 33.4636 5.46083 33.4092 5.58796L32.6463 7.09565C32.5919 7.20458 32.6463 7.3499 32.7552 7.42265C32.8823 7.47702 33.0276 7.44083 33.0822 7.31371L33.8451 5.80602C33.8995 5.69708 33.8451 5.55177 33.7362 5.47902Z" fill="white"/>
<path d="M33.1003 10.1291C32.9732 10.0384 32.9368 9.87486 33.0276 9.76593L35.1347 6.62342C35.2072 6.4963 35.3709 6.47811 35.4979 6.55086C35.6252 6.64161 35.6614 6.80511 35.5706 6.91405L33.4635 10.0565C33.3909 10.1837 33.2274 10.2201 33.1003 10.1291Z" fill="#F3F3F3"/>
<path d="M33.1004 10.1476C32.9732 10.0568 32.9369 9.87513 33.0096 9.74801L35.1166 6.60551C35.2073 6.47838 35.3708 6.44201 35.5161 6.53295C35.6432 6.6237 35.6796 6.80538 35.6071 6.93251L33.4999 10.075C33.4092 10.2021 33.2275 10.2383 33.1004 10.1476ZM35.4979 6.56932C35.3892 6.49657 35.2255 6.51476 35.1529 6.6237L33.0458 9.7662C32.9732 9.87495 33.0094 10.0204 33.1186 10.093C33.2275 10.1658 33.391 10.1476 33.4636 10.0386L35.5707 6.91432C35.6432 6.80538 35.6071 6.64188 35.4979 6.56932Z" fill="white"/>
<path d="M35.7522 9.45708C35.6434 9.36615 35.607 9.20265 35.6978 9.09371L36.7513 7.76771C36.8421 7.65896 37.0056 7.64058 37.1145 7.73152C37.2237 7.82227 37.2598 7.98577 37.1689 8.09471L36.1155 9.42071C36.0248 9.52965 35.8611 9.54783 35.7522 9.45708Z" fill="#F3F3F3"/>
<path d="M35.7341 9.47519C35.607 9.38426 35.5888 9.20257 35.6798 9.07544L36.7331 7.74963C36.8239 7.62232 37.0056 7.60413 37.1327 7.71326C37.2598 7.80401 37.278 7.98569 37.1871 8.11282L36.1337 9.43882C36.043 9.56594 35.8613 9.58413 35.7341 9.47519ZM37.0963 7.74944C36.9876 7.65869 36.8421 7.67688 36.7513 7.78582L35.6978 9.11182C35.6252 9.22075 35.6434 9.36607 35.7522 9.45682C35.8613 9.54775 36.0066 9.52957 36.0973 9.42063L37.1509 8.09463C37.2236 7.98569 37.2053 7.82219 37.0965 7.74963L37.0963 7.74944Z" fill="white"/>
<path d="M35.5707 12.1817C35.4618 12.0728 35.4618 11.9093 35.5707 11.8183L38.2589 9.14835C38.368 9.03941 38.5313 9.05741 38.6223 9.14835C38.713 9.2391 38.7312 9.42078 38.6223 9.51153L35.9523 12.1817C35.8432 12.2907 35.6797 12.2907 35.5707 12.1817Z" fill="#F3F3F3"/>
<path d="M35.5524 12.1999C35.5001 12.1466 35.4707 12.0749 35.4707 12.0001C35.4707 11.9254 35.5001 11.8537 35.5524 11.8004L38.2406 9.13018C38.2939 9.07773 38.3657 9.04834 38.4405 9.04834C38.5153 9.04834 38.5871 9.07773 38.6404 9.13018C38.6928 9.18348 38.7221 9.25522 38.7221 9.32996C38.7221 9.40469 38.6928 9.47644 38.6404 9.52974L35.952 12.1997C35.8987 12.2521 35.827 12.2815 35.7522 12.2815C35.6775 12.2815 35.6057 12.2523 35.5524 12.1999ZM38.6222 9.14836C38.5314 9.05743 38.3679 9.05743 38.2772 9.14836L35.5888 11.8184C35.4979 11.9093 35.4979 12.0728 35.5888 12.1636C35.6796 12.2545 35.8431 12.2545 35.9338 12.1636L38.6222 9.49355C38.7129 9.40261 38.7129 9.2573 38.6222 9.14836Z" fill="white"/>
<path d="M38.2952 12.0362C38.2044 11.9272 38.2044 11.7637 38.3134 11.6728L39.603 10.583C39.7119 10.4923 39.8754 10.5103 39.9664 10.6194C40.0571 10.7284 40.0571 10.8919 39.9482 10.9826L38.6586 12.0725C38.5494 12.1633 38.3859 12.1451 38.2952 12.0362Z" fill="#F3F3F3"/>
<path d="M38.277 12.0547C38.1681 11.9275 38.1863 11.7459 38.2952 11.6551L39.5848 10.5652C39.6938 10.4562 39.8755 10.4744 39.9844 10.6015C40.0935 10.7287 40.0753 10.9104 39.9664 11.0011L38.6766 12.091C38.5678 12.1998 38.386 12.1818 38.2772 12.0547H38.277ZM39.9482 10.6197C39.8573 10.5108 39.712 10.5108 39.6032 10.5834L38.3134 11.6733C38.2227 11.764 38.2045 11.9094 38.2952 12.0183C38.386 12.1272 38.5315 12.1272 38.6402 12.0547L39.93 10.9647C40.039 10.874 40.039 10.7287 39.9482 10.6197Z" fill="white"/>
<path d="M37.5687 14.6522C37.4779 14.5251 37.5143 14.3616 37.6414 14.2888L40.8019 12.1819C40.9291 12.1091 41.0926 12.1455 41.1651 12.2546C41.2561 12.3818 41.2197 12.5453 41.0926 12.6178L37.9321 14.7248C37.8229 14.7975 37.6594 14.7611 37.5687 14.6522Z" fill="#F3F3F3"/>
<path d="M37.5505 14.6518C37.4598 14.5247 37.4961 14.343 37.6233 14.2523L40.7838 12.1452C40.9109 12.0544 41.0926 12.0908 41.1833 12.2361C41.2743 12.3632 41.2377 12.5449 41.1108 12.6355L37.9503 14.7428C37.8229 14.8337 37.6414 14.7972 37.5505 14.6518ZM41.1469 12.2725C41.0744 12.1633 40.9291 12.127 40.8201 12.1997L37.6594 14.3067C37.5507 14.3794 37.5141 14.5247 37.6051 14.6518C37.6776 14.7608 37.8229 14.7972 37.9321 14.7246L41.0926 12.6175C41.2015 12.5267 41.2197 12.3812 41.1469 12.2725Z" fill="white"/>
<path d="M40.2752 15.0337C40.2025 14.9064 40.2389 14.7431 40.366 14.6703L41.8373 13.8348C41.9644 13.7621 42.1279 13.8167 42.2005 13.9436C42.2732 14.0709 42.2369 14.2342 42.1097 14.307L40.6384 15.1427C40.5113 15.2152 40.3478 15.1608 40.2751 15.0335L40.2752 15.0337Z" fill="#F3F3F3"/>
<path d="M40.2571 15.0517C40.1843 14.9064 40.2207 14.7429 40.3478 14.6703L41.8191 13.8348C41.9462 13.7621 42.1279 13.8167 42.2005 13.9436C42.2732 14.0891 42.2369 14.2526 42.1097 14.3252L40.6384 15.1608C40.5113 15.2334 40.3296 15.1788 40.2571 15.0517ZM42.1823 13.962C42.1097 13.8348 41.9644 13.7985 41.8555 13.871L40.3842 14.7067C40.2752 14.7793 40.2389 14.9246 40.2932 15.0335C40.366 15.1607 40.5113 15.197 40.6202 15.1245L42.0916 14.2888C42.2005 14.2344 42.2369 14.0891 42.1823 13.962Z" fill="white"/>
<path d="M39.0582 17.4493C39.0038 17.304 39.0582 17.1587 39.2035 17.1043L42.7092 15.6512C42.8363 15.5966 42.9998 15.6692 43.0542 15.7963C43.1087 15.9416 43.0542 16.0869 42.9088 16.1413L39.4033 17.5944C39.276 17.649 39.1127 17.5944 39.0582 17.4493Z" fill="#F3F3F3"/>
<path d="M39.04 17.4674C38.9856 17.3223 39.04 17.1588 39.1853 17.086L42.691 15.6329C42.7608 15.6066 42.8383 15.609 42.9063 15.6396C42.9744 15.6703 43.0276 15.7266 43.0542 15.7964C43.1087 15.9417 43.0542 16.1052 42.9088 16.1778L39.4033 17.6309C39.3335 17.6573 39.256 17.6549 39.1879 17.6243C39.1198 17.5937 39.0666 17.5371 39.04 17.4674ZM43.018 15.8146C42.9634 15.6874 42.8181 15.6329 42.7092 15.6693L39.2035 17.1224C39.0763 17.1768 39.0218 17.3223 39.0763 17.4494C39.1307 17.5765 39.276 17.6311 39.3852 17.5947L42.8907 16.1416C43.018 16.0872 43.0725 15.9417 43.018 15.8146Z" fill="white"/>
<path d="M41.6192 18.3574C41.5649 18.2119 41.6374 18.0668 41.7827 18.0122L43.3812 17.4853C43.5083 17.4309 43.6718 17.5217 43.7082 17.6488C43.7625 17.7941 43.69 17.9394 43.5447 17.994L41.9462 18.5209C41.8191 18.5753 41.6738 18.5027 41.6192 18.3572V18.3574Z" fill="#F3F3F3"/>
<path d="M41.6011 18.3757C41.5467 18.2304 41.6193 18.0669 41.783 18.0125L43.3812 17.4857C43.5265 17.4313 43.69 17.522 43.7446 17.6675C43.799 17.8127 43.7264 17.9762 43.5627 18.0307L41.9645 18.5576C41.8192 18.5938 41.6557 18.521 41.6011 18.3757ZM43.7082 17.6857C43.6718 17.5584 43.5265 17.4857 43.3994 17.522L41.801 18.0489C41.6738 18.0851 41.6193 18.2304 41.6557 18.3577C41.692 18.4848 41.8373 18.5574 41.9645 18.521L43.5629 17.9943C43.69 17.94 43.7446 17.8128 43.7082 17.6857Z" fill="white"/>
<path d="M39.9846 20.519C39.9482 20.3737 40.039 20.2284 40.1843 20.2102L43.908 19.4836C44.0532 19.4472 44.1805 19.5562 44.2167 19.7015C44.253 19.8468 44.1623 19.9921 44.017 20.0103L40.2932 20.7369C40.1479 20.7551 40.0026 20.6643 39.9844 20.519H39.9846Z" fill="#F3F3F3"/>
<path d="M39.9482 20.5192C39.9118 20.3557 40.0208 20.2104 40.1661 20.174L43.8898 19.4474C44.0352 19.4111 44.1805 19.5202 44.2167 19.6837C44.253 19.847 44.1441 19.9923 43.9988 20.0287L40.275 20.7553C40.1299 20.7916 39.9844 20.6827 39.9482 20.519V20.5192ZM44.1805 19.7017C44.1623 19.5746 44.0352 19.4838 43.908 19.502L40.1843 20.2286C40.0572 20.2468 39.9664 20.3919 40.0026 20.5192C40.0208 20.6463 40.1479 20.7371 40.2752 20.7189L43.9988 19.9923C44.1259 19.9559 44.2167 19.8288 44.1805 19.7017Z" fill="white"/>
<path d="M42.3096 21.9177C42.2914 21.7724 42.3821 21.6453 42.5274 21.6271L44.1984 21.4272C44.3437 21.4092 44.4711 21.5182 44.4891 21.6635C44.5072 21.8088 44.4165 21.9359 44.2712 21.9541L42.6 22.1538C42.4729 22.172 42.3277 22.0631 42.3096 21.9177Z" fill="#F3F3F3"/>
<path d="M42.2914 21.9178C42.2732 21.7543 42.3822 21.609 42.5275 21.5908L44.1985 21.3911C44.3438 21.373 44.4891 21.4819 44.5073 21.6454C44.5255 21.8089 44.4165 21.9542 44.2712 21.9724L42.6 22.1721C42.4549 22.1903 42.3094 22.0813 42.2914 21.9178ZM44.4891 21.6636C44.4711 21.5365 44.344 21.4273 44.2167 21.4455L42.5457 21.6454C42.4185 21.6636 42.3276 21.7907 42.3458 21.9178C42.364 22.045 42.4911 22.1541 42.6182 22.1359L44.2894 21.936C44.4165 21.9178 44.5071 21.7907 44.4891 21.6636Z" fill="white"/>
<path d="M40.2753 23.6797C40.2753 23.5344 40.384 23.4072 40.5295 23.4072H44.3258C44.4711 23.4072 44.5801 23.5344 44.5801 23.6797C44.5801 23.825 44.4711 23.9521 44.3258 23.9521H40.5295C40.3842 23.9521 40.2753 23.825 40.2753 23.6797Z" fill="#F3F3F3"/>
<path d="M40.2571 23.6798C40.2571 23.5163 40.3842 23.3892 40.5295 23.3892H44.3258C44.4711 23.3892 44.5983 23.5163 44.5983 23.6798C44.5983 23.8433 44.4711 23.9704 44.3258 23.9704H40.5295C40.3842 23.9704 40.2571 23.8433 40.2571 23.6798ZM44.5619 23.698C44.5619 23.5708 44.453 23.4437 44.3256 23.4437H40.5297C40.4026 23.4437 40.2935 23.5525 40.2935 23.698C40.2935 23.8251 40.4026 23.9522 40.5297 23.9522H44.326C44.4531 23.934 44.5619 23.8251 44.5619 23.698Z" fill="white"/>
<path d="M42.2914 25.514C42.3094 25.3687 42.4186 25.2598 42.5639 25.2598L44.2533 25.3869C44.3984 25.4051 44.5073 25.5322 44.4891 25.6775C44.4711 25.8228 44.362 25.9318 44.2167 25.9318L42.5275 25.8046C42.4004 25.7865 42.2914 25.6593 42.2914 25.514Z" fill="#F3F3F3"/>
<path d="M42.2732 25.5141C42.2914 25.3506 42.4185 25.2417 42.5638 25.2417L44.2532 25.3688C44.3983 25.387 44.5254 25.5141 44.5073 25.6776C44.4893 25.8411 44.3619 25.9501 44.2166 25.9501L42.5274 25.8229C42.3821 25.8048 42.2732 25.6594 42.2732 25.5141ZM44.4893 25.6776C44.5073 25.5505 44.3983 25.4234 44.2712 25.4234L42.5818 25.2963C42.4549 25.2963 42.3458 25.387 42.3276 25.5325C42.3096 25.6594 42.4185 25.7866 42.5456 25.7866L44.235 25.9137C44.3619 25.9137 44.4711 25.8049 44.4893 25.6776Z" fill="white"/>
<path d="M39.9482 26.8399C39.9846 26.6945 40.1117 26.6036 40.2571 26.622L43.9806 27.3667C44.1259 27.4029 44.2169 27.53 44.1805 27.6754C44.1441 27.8207 44.017 27.9116 43.8717 27.8934L40.1479 27.1487C40.0208 27.1305 39.9301 26.9852 39.9482 26.8399Z" fill="#F3F3F3"/>
<path d="M39.93 26.8401C39.9664 26.6766 40.1117 26.5858 40.257 26.6038L43.9806 27.3488C44.1259 27.3849 44.2349 27.5303 44.1985 27.6938C44.1623 27.8573 44.017 27.9482 43.8717 27.93L40.1479 27.1853C40.0026 27.1489 39.9119 27.0036 39.93 26.8403V26.8401ZM44.1623 27.6938C44.1805 27.5666 44.1079 27.4395 43.9806 27.4031L40.2569 26.6584C40.1299 26.6404 40.0026 26.7129 39.9662 26.8583C39.9482 26.9854 40.0208 27.1125 40.1481 27.1489L43.8717 27.8936C44.017 27.9118 44.1259 27.8209 44.1623 27.6938Z" fill="white"/>
<path d="M41.583 29.0198C41.5913 28.9852 41.6064 28.9526 41.6273 28.9238C41.6483 28.8951 41.6747 28.8708 41.705 28.8522C41.7354 28.8337 41.7691 28.8213 41.8042 28.8158C41.8394 28.8103 41.8752 28.8117 41.9098 28.8201L43.5446 29.274C43.6899 29.3104 43.7625 29.4559 43.7263 29.601C43.718 29.6356 43.7029 29.6683 43.682 29.697C43.661 29.7258 43.6346 29.7502 43.6043 29.7688C43.5739 29.7873 43.5402 29.7997 43.505 29.8052C43.4698 29.8107 43.4339 29.8093 43.3993 29.8009L41.7645 29.3468C41.6192 29.3104 41.5468 29.1651 41.583 29.0198Z" fill="#F3F3F3"/>
<path d="M41.5647 29.0197C41.601 28.8743 41.7645 28.7654 41.9099 28.82L43.5447 29.2739C43.69 29.3103 43.7809 29.4738 43.7445 29.6191C43.7082 29.7644 43.5447 29.8734 43.3994 29.819L41.7645 29.3649C41.6192 29.3285 41.5283 29.1832 41.5649 29.0199L41.5647 29.0197ZM43.69 29.6191C43.7264 29.492 43.6536 29.3467 43.5265 29.3103L41.8917 28.8562C41.7645 28.8198 41.6374 28.8925 41.601 29.0378C41.5649 29.165 41.6374 29.3103 41.7645 29.3467L43.3994 29.8008C43.5265 29.819 43.6536 29.7464 43.69 29.6191Z" fill="white"/>
<path d="M39.0217 29.8917C39.0761 29.7463 39.2398 29.6918 39.3667 29.7463L42.8726 31.1995C42.9997 31.2538 43.0723 31.4175 43.0179 31.5445C42.9634 31.69 42.7999 31.7443 42.6727 31.69L39.167 30.2368C39.0217 30.1825 38.9672 30.0186 39.0217 29.8917Z" fill="#F3F3F3"/>
<path d="M39.0036 29.8736C39.0302 29.8038 39.0834 29.7474 39.1515 29.7167C39.2196 29.6861 39.2971 29.6837 39.367 29.7101L42.8727 31.1632C43.018 31.2178 43.0723 31.3813 43.018 31.5448C42.9914 31.6146 42.9382 31.671 42.8701 31.7016C42.802 31.7323 42.7245 31.7347 42.6546 31.7083L39.1489 30.2552C39.0036 30.1824 38.9492 30.0189 39.0036 29.8736ZM42.9816 31.5266C43.036 31.3995 42.9816 31.2542 42.8545 31.1996L39.3488 29.7465C39.2217 29.6921 39.0945 29.7647 39.04 29.8918C38.9856 30.0189 39.04 30.1642 39.1671 30.2188L42.6728 31.6719C42.7999 31.7083 42.9452 31.6537 42.9816 31.5266Z" fill="white"/>
<path d="M40.2025 32.344C40.2753 32.2169 40.4204 32.1623 40.5475 32.2169L42.0552 32.9798C42.1823 33.0342 42.2369 33.1977 42.1643 33.343C42.0916 33.4701 41.9463 33.5249 41.8191 33.4701L40.3116 32.7074C40.1843 32.6346 40.1298 32.4711 40.2025 32.344Z" fill="#F3F3F3"/>
<path d="M40.1843 32.3256C40.2571 32.1803 40.4206 32.1259 40.5659 32.1985L42.0734 32.9614C42.2187 33.0342 42.2733 33.1977 42.2005 33.3428C42.128 33.4881 41.9643 33.5427 41.8192 33.4699L40.3117 32.7072C40.1662 32.6528 40.1118 32.4709 40.1843 32.3256ZM42.1462 33.3246C42.2005 33.1975 42.1642 33.0522 42.037 32.9978L40.5295 32.2349C40.4204 32.1805 40.2753 32.2349 40.2025 32.3438C40.1482 32.4709 40.1843 32.6163 40.3115 32.6708L41.819 33.4338C41.9463 33.4881 42.0916 33.4519 42.1462 33.3246Z" fill="white"/>
<path d="M37.5323 32.6891C37.6233 32.5619 37.7686 32.5256 37.8957 32.6163L41.0562 34.7234C41.1833 34.796 41.2015 34.9597 41.1289 35.0866C41.038 35.2139 40.8927 35.2501 40.7656 35.1594L37.6051 33.0522C37.4779 32.9615 37.4416 32.798 37.5323 32.6891Z" fill="#F3F3F3"/>
<path d="M37.5141 32.6708C37.605 32.5437 37.7867 32.5073 37.9138 32.5801L41.0743 34.687C41.2014 34.7777 41.2378 34.9412 41.1469 35.0866C41.0561 35.2139 40.8744 35.2501 40.7475 35.1775L37.5868 33.0704C37.4415 32.9796 37.4233 32.7979 37.5141 32.6708ZM41.0925 35.0684C41.1651 34.9596 41.1469 34.7959 41.0381 34.7234L37.8774 32.6162C37.7685 32.5437 37.6232 32.5801 37.5504 32.689C37.4779 32.7979 37.4961 32.9614 37.6048 33.034L40.7655 35.1411C40.8744 35.2139 41.0198 35.1775 41.0925 35.0686V35.0684Z" fill="white"/>
<path d="M38.2044 35.3228C38.2952 35.2137 38.4587 35.1775 38.5676 35.2684L39.8936 36.3036C40.0025 36.3943 40.0207 36.5578 39.93 36.667C39.8392 36.7757 39.6757 36.8123 39.5666 36.7213L38.2406 35.686C38.1319 35.5952 38.1135 35.4317 38.2044 35.3228Z" fill="#F3F3F3"/>
<path d="M38.1863 35.3046C38.277 35.1775 38.4587 35.1593 38.5858 35.2502L39.9118 36.2854C40.039 36.3761 40.0572 36.5578 39.9662 36.685C39.8755 36.8123 39.6938 36.8303 39.5669 36.7395L38.2407 35.7041C38.1135 35.6134 38.0955 35.4317 38.1863 35.3046ZM39.93 36.667C40.0208 36.5578 40.0026 36.4125 39.8937 36.3218L38.5677 35.2864C38.4587 35.2138 38.3134 35.232 38.2227 35.3408C38.1317 35.4499 38.1499 35.5952 38.2588 35.686L39.5848 36.7213C39.6938 36.7941 39.8391 36.7757 39.9298 36.667H39.93Z" fill="white"/>
<path d="M35.4979 35.1413C35.607 35.0323 35.7705 35.0323 35.8612 35.1413L38.5494 37.8113C38.6586 37.9204 38.6404 38.0839 38.5494 38.1746C38.4407 38.2836 38.277 38.2836 38.1862 38.1746L35.4979 35.5046C35.4071 35.4137 35.4071 35.232 35.4979 35.1413Z" fill="#F3F3F3"/>
<path d="M35.4979 35.1229C35.5512 35.0704 35.623 35.041 35.6978 35.041C35.7726 35.041 35.8444 35.0704 35.8977 35.1229L38.5859 37.7929C38.6383 37.8462 38.6677 37.9179 38.6677 37.9927C38.6677 38.0675 38.6383 38.1393 38.5859 38.1926C38.5326 38.245 38.4608 38.2743 38.3861 38.2743C38.3114 38.2743 38.2396 38.245 38.1863 38.1926L35.4979 35.5226C35.3708 35.4135 35.3708 35.232 35.4979 35.1229ZM38.5495 38.1562C38.6404 38.0655 38.6404 37.902 38.5495 37.8112L35.8613 35.141C35.7706 35.0503 35.6071 35.0503 35.5163 35.141C35.4254 35.2318 35.4254 35.3953 35.5163 35.486L38.2045 38.1562C38.2952 38.2654 38.4407 38.2654 38.5495 38.1562Z" fill="white"/>
<path d="M35.6614 37.8477C35.7705 37.7569 35.9338 37.7569 36.0247 37.8659L37.1329 39.1373C37.2234 39.2464 37.2054 39.4099 37.0963 39.5007C36.9875 39.5914 36.8239 39.5914 36.7331 39.4825L35.625 38.2111C35.5342 38.1203 35.5524 37.9568 35.6614 37.8477Z" fill="#F3F3F3"/>
<path d="M35.6434 37.8475C35.7705 37.7388 35.934 37.7568 36.0427 37.8657L37.1509 39.1371C37.2598 39.2463 37.2416 39.4278 37.1145 39.5369C36.9874 39.6458 36.8239 39.6276 36.7149 39.5187L35.6068 38.2473C35.5161 38.1201 35.5161 37.9385 35.6432 37.8475H35.6434ZM37.0965 39.5005C37.2053 39.4098 37.2052 39.2643 37.1327 39.1555L36.0246 37.8839C35.9338 37.7931 35.7885 37.775 35.6796 37.8657C35.5706 37.9566 35.5706 38.102 35.6432 38.2107L36.7513 39.4823C36.8421 39.5913 36.9876 39.5913 37.0963 39.5005H37.0965Z" fill="white"/>
<path d="M33.0458 37.1573C33.1729 37.0666 33.3364 37.1029 33.4092 37.2301L35.5159 40.3724C35.5887 40.4995 35.5523 40.663 35.4434 40.7358C35.3162 40.8265 35.1527 40.7901 35.08 40.663L32.973 37.5205C32.9003 37.3936 32.9367 37.2299 33.0456 37.1573H33.0458Z" fill="#F3F3F3"/>
<path d="M33.0457 37.1393C33.1728 37.0485 33.3545 37.0849 33.4453 37.212L35.5524 40.3545C35.6432 40.4814 35.6068 40.6631 35.4617 40.7539C35.3343 40.8448 35.1528 40.8084 35.0619 40.6813L32.955 37.5388C32.8642 37.3937 32.9006 37.23 33.0457 37.1393ZM35.4435 40.7177C35.5524 40.6449 35.5888 40.4996 35.516 40.3907L33.4091 37.2482C33.3363 37.1394 33.191 37.1211 33.0641 37.1938C32.955 37.2664 32.9186 37.4117 32.9914 37.5208L35.0983 40.6631C35.171 40.7539 35.3345 40.7903 35.4433 40.7175L35.4435 40.7177Z" fill="white"/>
<path d="M32.6644 39.8455C32.7915 39.773 32.955 39.8094 33.0276 39.9365L33.8633 41.4078C33.9358 41.5349 33.8813 41.6984 33.7541 41.771C33.627 41.8437 33.4635 41.8074 33.3909 41.6802L32.5554 40.2089C32.5009 40.0818 32.5373 39.9183 32.6642 39.8457L32.6644 39.8455Z" fill="#F3F3F3"/>
<path d="M32.6644 39.8276C32.8097 39.7549 32.9732 39.7912 33.0457 39.9184L33.8812 41.3897C33.954 41.5168 33.9176 41.6985 33.7725 41.7711C33.627 41.8438 33.4635 41.8074 33.3909 41.6803L32.5554 40.209C32.4827 40.0819 32.5191 39.9184 32.6642 39.8276H32.6644ZM33.7541 41.7531C33.8632 41.6803 33.9176 41.535 33.8451 41.426L33.0096 39.9547C32.9368 39.8458 32.7915 39.8094 32.6826 39.8638C32.5734 39.9365 32.5191 40.0819 32.5916 40.1908L33.4273 41.6621C33.4817 41.7711 33.6452 41.8258 33.7541 41.7531Z" fill="white"/>
<path d="M30.2484 38.647C30.3938 38.5926 30.5391 38.647 30.5936 38.7741L32.0649 42.2798C32.1193 42.4069 32.0468 42.5704 31.9196 42.6248C31.7925 42.6793 31.629 42.6248 31.5746 42.4977L30.1033 38.9922C30.0488 38.8648 30.1213 38.7015 30.2484 38.647Z" fill="#F3F3F3"/>
<path d="M30.2484 38.6286C30.3938 38.5742 30.5573 38.6286 30.63 38.7739L32.1013 42.2796C32.1277 42.3494 32.1252 42.4269 32.0946 42.4949C32.0639 42.563 32.0076 42.6162 31.9378 42.6428C31.7925 42.6973 31.629 42.6428 31.5564 42.4975L30.0851 38.992C30.0306 38.8647 30.1033 38.7013 30.2484 38.6286ZM31.9014 42.6066C32.0286 42.552 32.0831 42.4067 32.0286 42.2978L30.5573 38.7921C30.5029 38.665 30.3576 38.6104 30.2304 38.665C30.1033 38.7193 30.0486 38.8647 30.1033 38.9738L31.5744 42.4795C31.6472 42.6066 31.7743 42.661 31.9014 42.6066Z" fill="white"/>
<path d="M29.3584 41.226C29.5039 41.1717 29.649 41.2442 29.7035 41.3895L30.2304 42.988C30.2848 43.1151 30.194 43.2786 30.0669 43.315C29.9216 43.3694 29.7763 43.2968 29.7219 43.1515L29.195 41.5531C29.1407 41.4259 29.2132 41.2806 29.3585 41.226H29.3584Z" fill="#F3F3F3"/>
<path d="M29.3404 41.2081C29.4102 41.1817 29.4877 41.1842 29.5557 41.2148C29.6238 41.2455 29.677 41.3018 29.7036 41.3716L30.2304 42.97C30.2848 43.1153 30.1941 43.2788 30.0486 43.3334C29.9787 43.3597 29.9013 43.3573 29.8332 43.3266C29.7651 43.296 29.712 43.2396 29.6854 43.1699L29.1587 41.5714C29.1223 41.4261 29.1951 41.2626 29.3404 41.2081ZM30.0487 43.2968C30.1759 43.2606 30.2484 43.1153 30.2122 42.9882L29.6854 41.3898C29.6492 41.2626 29.5039 41.2081 29.3767 41.2444C29.2494 41.2808 29.1769 41.4261 29.2132 41.5533L29.7399 43.1517C29.7492 43.1825 29.7648 43.2111 29.7859 43.2355C29.8069 43.2598 29.8328 43.2795 29.8619 43.2932C29.8911 43.3069 29.9227 43.3144 29.9549 43.315C29.9871 43.3157 30.0191 43.3095 30.0487 43.297V43.2968Z" fill="white"/>
<path d="M27.2153 39.573C27.3604 39.5366 27.5059 39.6273 27.5239 39.7727L28.2868 43.4964C28.3232 43.6415 28.2141 43.7688 28.0688 43.805C27.9236 43.8414 27.7781 43.7507 27.7601 43.6053L26.997 39.8816C26.979 39.7545 27.0698 39.6092 27.2151 39.5728L27.2153 39.573Z" fill="#F3F3F3"/>
<path d="M27.2153 39.5548C27.3786 39.5187 27.5239 39.6276 27.5603 39.7729L28.3232 43.4967C28.3596 43.6418 28.2505 43.8053 28.1052 43.8235C27.9417 43.8598 27.7963 43.7509 27.7602 43.6056L26.997 39.8818C26.9608 39.7365 27.0518 39.5912 27.2151 39.555L27.2153 39.5548ZM28.0688 43.7871C28.1961 43.7691 28.2868 43.6418 28.2687 43.4965L27.5057 39.7729C27.4877 39.6458 27.3424 39.555 27.2151 39.5912C27.088 39.6094 26.9972 39.7365 27.0154 39.8818L27.7783 43.6056C27.8145 43.7327 27.9417 43.8053 28.069 43.7873L28.0688 43.7871Z" fill="white"/>
<path d="M25.8347 41.9344C25.98 41.9162 26.1072 42.0072 26.1435 42.1525L26.3614 43.8235C26.3796 43.9688 26.2707 44.0959 26.1252 44.1141C25.98 44.1323 25.8529 44.0416 25.8165 43.8962L25.5987 42.2251C25.5805 42.0797 25.6894 41.9526 25.8347 41.9344Z" fill="#F3F3F3"/>
<path d="M25.8347 41.916C25.9982 41.898 26.1435 42.0069 26.1617 42.1523L26.3796 43.8233C26.3978 43.9686 26.2888 44.1139 26.1253 44.1321C25.9618 44.1503 25.8165 44.0413 25.7983 43.8958L25.5805 42.2248C25.5623 42.0795 25.6712 41.9342 25.8347 41.916ZM26.1072 44.0957C26.2343 44.0777 26.3434 43.9504 26.3252 43.8233L26.1072 42.1523C26.089 42.0251 25.9618 41.9342 25.8347 41.9524C25.7076 41.9706 25.5985 42.0977 25.6167 42.2248L25.8347 43.896C25.8529 44.0231 25.98 44.1139 26.1072 44.0957Z" fill="white"/>
<path d="M23.9638 39.8999C24.1092 39.8999 24.2363 40.009 24.2363 40.1543V43.9505C24.2363 44.0958 24.1092 44.2049 23.9638 44.2049C23.8185 44.2049 23.6914 44.0958 23.6914 43.9505V40.1543C23.7096 40.009 23.8185 39.8999 23.9638 39.8999Z" fill="#F3F3F3"/>
<path d="M23.9638 39.8818C24.1273 39.8818 24.2545 40.009 24.2545 40.1543V43.9506C24.2545 44.0959 24.1273 44.223 23.9638 44.223C23.8003 44.223 23.6732 44.0959 23.6732 43.9506V40.1545C23.6732 40.0092 23.8185 39.8818 23.9638 39.8818ZM23.9638 44.1868C24.091 44.1868 24.2181 44.0779 24.2181 43.9506V40.1545C24.2181 40.0272 24.1092 39.9182 23.9638 39.9182C23.8367 39.9182 23.7096 40.0272 23.7096 40.1545V43.9506C23.7276 44.0779 23.8367 44.1868 23.9638 44.1868Z" fill="white"/>
<path d="M22.1474 41.9346C22.2927 41.9528 22.4016 42.0617 22.4016 42.207L22.2745 43.8964C22.2565 44.0417 22.1292 44.1507 21.9839 44.1327C21.8386 44.1143 21.7296 44.0053 21.7296 43.86L21.8567 42.1707C21.8749 42.0255 22.0021 41.9164 22.1474 41.9346Z" fill="#F3F3F3"/>
<path d="M22.1474 41.916C22.3109 41.9342 22.4198 42.0613 22.4198 42.2066L22.2927 43.896C22.2745 44.0413 22.1474 44.1684 21.9839 44.1503C21.8205 44.1321 21.7114 44.0049 21.7114 43.8596L21.8385 42.1703C21.8567 42.0069 21.9839 41.898 22.1474 41.916ZM21.9839 44.1139C22.111 44.1139 22.2383 44.0231 22.2383 43.896L22.3654 42.2066C22.3654 42.0795 22.2745 41.9706 22.1292 41.9524C22.0021 41.9524 21.8749 42.0431 21.8749 42.1704L21.7478 43.8596C21.7478 43.9868 21.8565 44.0959 21.9839 44.1139Z" fill="white"/>
<path d="M20.7851 39.5731C20.9304 39.6093 21.0212 39.7364 21.003 39.8817L20.2582 43.6055C20.2219 43.7508 20.0947 43.8417 19.9494 43.8052C19.8041 43.769 19.7134 43.6419 19.7316 43.4964L20.4763 39.7728C20.4945 39.6457 20.6398 39.5549 20.7851 39.5731Z" fill="#F3F3F3"/>
<path d="M20.7851 39.5549C20.9484 39.5913 21.0394 39.7368 21.0212 39.8819L20.2764 43.6056C20.24 43.751 20.0947 43.8599 19.9314 43.8235C19.7679 43.7871 19.677 43.6418 19.6952 43.4965L20.4399 39.773C20.4763 39.6276 20.6216 39.5367 20.7849 39.5551L20.7851 39.5549ZM19.9314 43.7871C20.0585 43.8053 20.1857 43.7328 20.222 43.6056L20.9666 39.8819C20.9848 39.7548 20.9122 39.6276 20.7669 39.5913C20.6398 39.5733 20.5127 39.6458 20.4763 39.7731L19.7315 43.4965C19.7134 43.6418 19.8041 43.751 19.9314 43.7871Z" fill="white"/>
<path d="M18.6053 41.2079C18.7508 41.2443 18.8416 41.3896 18.8052 41.5349L18.3511 43.1697C18.3149 43.3151 18.1696 43.3876 18.0243 43.3514C17.9896 43.3431 17.957 43.3281 17.9282 43.3071C17.8994 43.2862 17.8751 43.2598 17.8565 43.2294C17.8379 43.199 17.8256 43.1653 17.82 43.1301C17.8145 43.0949 17.816 43.059 17.8244 43.0244L18.2785 41.3896C18.3149 41.2443 18.46 41.1717 18.6053 41.2079Z" fill="#F3F3F3"/>
<path d="M18.6052 41.1899C18.7507 41.226 18.8597 41.3895 18.8051 41.5349L18.351 43.1697C18.3148 43.315 18.1513 43.4059 18.006 43.3693C17.8607 43.3332 17.7517 43.1697 17.8061 43.0244L18.2602 41.3895C18.2966 41.2442 18.4419 41.1533 18.6052 41.1897V41.1899ZM18.006 43.315C18.1331 43.3514 18.2784 43.2786 18.3148 43.1515L18.7687 41.5167C18.8051 41.3895 18.7325 41.2624 18.5872 41.226C18.4601 41.1897 18.3148 41.2624 18.2784 41.3895L17.8243 43.0244C17.8061 43.1515 17.8787 43.2786 18.006 43.315Z" fill="white"/>
<path d="M17.7154 38.6466C17.8608 38.701 17.9151 38.8645 17.8608 38.9916L16.4076 42.4973C16.3533 42.6246 16.1896 42.6971 16.0626 42.6246C15.9353 42.5518 15.8626 42.4065 15.9171 42.2794L17.3703 38.7737C17.4246 38.6466 17.5885 38.5738 17.7154 38.6466Z" fill="#F3F3F3"/>
<path d="M17.7154 38.6286C17.7852 38.6552 17.8416 38.7083 17.8722 38.7765C17.9029 38.8446 17.9053 38.9221 17.8789 38.9919L16.4257 42.4974C16.3712 42.6427 16.2077 42.6973 16.0442 42.6427C15.9744 42.6161 15.9181 42.563 15.8874 42.4949C15.8568 42.4269 15.8544 42.3494 15.8807 42.2796L17.3338 38.7739C17.4066 38.6286 17.5701 38.556 17.7154 38.6286ZM16.0624 42.6066C16.1895 42.6609 16.3348 42.6066 16.3894 42.4794L17.8425 38.9737C17.8969 38.8466 17.8243 38.7193 17.6972 38.6649C17.5701 38.6106 17.4247 38.6649 17.3702 38.7921L15.9171 42.2977C15.8807 42.4067 15.9352 42.552 16.0624 42.6066Z" fill="white"/>
<path d="M15.2633 39.8094C15.3904 39.882 15.4448 40.0273 15.3904 40.1544L14.6275 41.6621C14.5547 41.7893 14.4094 41.8438 14.2641 41.7711C14.137 41.6985 14.0826 41.5532 14.137 41.4261L14.9001 39.9186C14.9726 39.7913 15.118 39.7367 15.2633 39.8094Z" fill="#F3F3F3"/>
<path d="M15.2633 39.7913C15.4086 39.8638 15.463 40.0275 15.3904 40.1727L14.6275 41.6803C14.5548 41.8257 14.3913 41.8802 14.2461 41.8075C14.1008 41.7349 14.0463 41.5712 14.119 41.4261L14.8818 39.9186C14.9545 39.7731 15.118 39.7187 15.2633 39.7913ZM14.2643 41.7713C14.3914 41.8257 14.5368 41.7893 14.5911 41.6622L15.3541 40.1547C15.4084 40.0455 15.3541 39.9002 15.2451 39.8277C15.118 39.7733 14.9727 39.8095 14.9181 39.9366L14.1552 41.4441C14.1008 41.5532 14.1552 41.6987 14.2643 41.7713Z" fill="white"/>
<path d="M14.8998 37.1209C15.027 37.2116 15.0633 37.3751 14.9726 37.4841L12.8655 40.6266C12.7929 40.7535 12.6292 40.7717 12.5023 40.6991C12.3752 40.6082 12.3388 40.4449 12.4295 40.3358L14.5367 37.1933C14.6092 37.0663 14.7727 37.0301 14.8998 37.1209Z" fill="#F3F3F3"/>
<path d="M14.9 37.1026C15.0271 37.1936 15.0635 37.3753 14.9907 37.5024L12.8838 40.6449C12.793 40.7718 12.6295 40.8082 12.4842 40.7174C12.3571 40.6265 12.3207 40.445 12.3933 40.3177L14.5004 37.1754C14.5911 37.0483 14.7728 37.0119 14.9 37.1026ZM12.5024 40.6811C12.6111 40.7536 12.7748 40.7354 12.8474 40.6267L14.9545 37.4842C15.0271 37.3753 14.9909 37.2299 14.8818 37.1572C14.7728 37.0846 14.6093 37.1028 14.5368 37.2116L12.4296 40.3359C12.3571 40.445 12.3933 40.6085 12.5024 40.6811Z" fill="white"/>
<path d="M12.2479 37.793C12.357 37.8838 12.3932 38.0473 12.3025 38.1562L11.2489 39.4822C11.1581 39.5912 10.9946 39.6094 10.8857 39.5186C10.7768 39.4279 10.7404 39.2644 10.8313 39.1552L11.8847 37.8292C11.9755 37.7205 12.139 37.7021 12.2479 37.793Z" fill="#F3F3F3"/>
<path d="M12.2661 37.7747C12.3933 37.8655 12.4114 38.0471 12.3205 38.1743L11.2671 39.5003C11.1764 39.6274 10.9947 39.6456 10.8676 39.5366C10.7404 39.4457 10.7223 39.2642 10.8132 39.1369L11.8666 37.8111C11.9573 37.6838 12.139 37.6658 12.2661 37.7747ZM10.9039 39.5003C11.0127 39.591 11.1582 39.573 11.2489 39.4639L12.3025 38.1379C12.3753 38.0291 12.3569 37.8836 12.2481 37.7929C12.139 37.702 11.9937 37.7201 11.9029 37.8293L10.8494 39.1551C10.7768 39.2642 10.7952 39.4275 10.9039 39.5003Z" fill="white"/>
<path d="M12.4296 35.0687C12.5385 35.1774 12.5385 35.3411 12.4296 35.4318L9.74139 38.1018C9.63227 38.211 9.46895 38.1928 9.37802 38.1018C9.28727 38.0111 9.26908 37.8294 9.37802 37.7387L12.048 35.0687C12.1571 34.9595 12.3206 34.9595 12.4296 35.0687Z" fill="#F3F3F3"/>
<path d="M12.4478 35.0505C12.5001 35.1038 12.5294 35.1755 12.5294 35.2502C12.5294 35.3249 12.5001 35.3966 12.4478 35.4499L9.75941 38.1202C9.70612 38.1726 9.63441 38.2019 9.55972 38.2019C9.48503 38.2019 9.41333 38.1726 9.36004 38.1202C9.30759 38.0669 9.2782 37.9952 9.2782 37.9204C9.2782 37.8456 9.30759 37.7738 9.36004 37.7205L12.0482 35.0505C12.1015 34.9981 12.1733 34.9687 12.248 34.9688C12.3227 34.9687 12.3945 34.9981 12.4478 35.0505ZM9.37804 38.1019C9.46879 38.1926 9.63229 38.1926 9.72304 38.1019L12.4114 35.4317C12.5023 35.3409 12.5023 35.1774 12.4114 35.0867C12.3207 34.9957 12.1572 34.9957 12.0664 35.0867L9.37804 37.7567C9.28729 37.8474 9.28729 37.9929 9.37804 38.1017V38.1019Z" fill="white"/>
<path d="M9.70503 35.2137C9.79578 35.3225 9.79578 35.4862 9.68684 35.5769L8.39722 36.6669C8.28828 36.7576 8.12478 36.7394 8.03384 36.6305C7.94309 36.5214 7.94309 36.3581 8.05203 36.2671L9.34165 35.1774C9.45078 35.0864 9.61409 35.1046 9.70503 35.2137Z" fill="#F3F3F3"/>
<path d="M9.72321 35.1956C9.83215 35.3229 9.81396 35.5044 9.70503 35.5953L8.4154 36.6851C8.30646 36.7942 8.12478 36.776 8.01584 36.6489C7.90671 36.5216 7.9249 36.3401 8.03384 36.2492L9.32365 35.1594C9.4324 35.0505 9.61428 35.0687 9.72303 35.1958L9.72321 35.1956ZM8.05203 36.6307C8.14296 36.7397 8.28828 36.7397 8.39703 36.6671L9.68684 35.5772C9.77759 35.4864 9.79578 35.3409 9.70503 35.2322C9.61409 35.123 9.46878 35.123 9.36003 35.1958L8.07021 36.2855C7.96128 36.3763 7.96128 36.522 8.05203 36.6307Z" fill="white"/>
<path d="M10.4316 32.5981C10.5224 32.7254 10.486 32.8888 10.3589 32.9615L7.19838 35.0686C7.07126 35.1412 6.90776 35.1048 6.83519 34.9959C6.74426 34.8688 6.78063 34.7053 6.90776 34.6325L10.0684 32.5256C10.1776 32.453 10.3409 32.4892 10.4318 32.5981H10.4316Z" fill="#F3F3F3"/>
<path d="M10.4498 32.5982C10.5405 32.7255 10.5041 32.907 10.377 32.998L7.21652 35.1049C7.08939 35.1958 6.9077 35.1593 6.81695 35.0142C6.72602 34.887 6.76258 34.7053 6.88952 34.6146L10.0502 32.5075C10.1773 32.4167 10.359 32.4531 10.4498 32.5982ZM6.85333 34.9778C6.92589 35.0867 7.0712 35.1231 7.18014 35.0505L10.3406 32.9434C10.4498 32.8708 10.486 32.7255 10.3952 32.5984C10.3226 32.4893 10.1773 32.4531 10.0682 32.5257L6.9077 34.6328C6.79877 34.7235 6.78058 34.8688 6.85333 34.9778Z" fill="white"/>
<path d="M7.72503 32.2167C7.79778 32.3438 7.76141 32.5073 7.63428 32.5801L6.16297 33.4156C6.03584 33.4882 5.87234 33.4338 5.79978 33.3067C5.72703 33.1795 5.76341 33.016 5.89053 32.9433L7.36184 32.1078C7.48897 32.035 7.65247 32.0896 7.72522 32.2167H7.72503Z" fill="#F3F3F3"/>
<path d="M7.74341 32.1987C7.81597 32.344 7.77959 32.5075 7.65247 32.5802L6.18116 33.4157C6.05403 33.4883 5.87234 33.4339 5.79978 33.3068C5.72703 33.1615 5.76341 32.998 5.89053 32.9252L7.36184 32.0897C7.48897 32.017 7.67066 32.0715 7.74322 32.1987H7.74341ZM5.81778 33.2886C5.89053 33.4157 6.03584 33.4521 6.14478 33.3793L7.61609 32.5438C7.72503 32.4711 7.76141 32.3258 7.70703 32.2168C7.63428 32.0897 7.48897 32.0533 7.38003 32.1261L5.90872 32.9616C5.79978 33.016 5.76322 33.1615 5.81778 33.2886Z" fill="white"/>
<path d="M8.94205 29.8008C8.99643 29.9461 8.94205 30.0914 8.79674 30.1458L5.29105 31.5989C5.16393 31.6534 5.00043 31.5809 4.94605 31.4536C4.89149 31.3083 4.94605 31.1629 5.09136 31.1086L8.59705 29.6554C8.72418 29.6011 8.88768 29.6554 8.94205 29.8008Z" fill="#F3F3F3"/>
<path d="M8.96024 29.7827C9.01461 29.928 8.96024 30.0915 8.81493 30.1641L5.30924 31.6172C5.23939 31.6435 5.16195 31.6411 5.09388 31.6105C5.02581 31.5798 4.97265 31.5235 4.94605 31.4537C4.89149 31.3084 4.94605 31.1449 5.09136 31.0723L8.59705 29.6192C8.6669 29.5929 8.74434 29.5953 8.81241 29.6259C8.88048 29.6566 8.93364 29.713 8.96024 29.7827ZM4.98224 31.4355C5.0368 31.5628 5.18211 31.6174 5.29105 31.5808L8.79674 30.1277C8.92386 30.0733 8.97843 29.928 8.92386 29.8009C8.86949 29.6738 8.72418 29.6192 8.61505 29.6556L5.10936 31.1087C4.98224 31.1631 4.92786 31.3084 4.98224 31.4357V31.4355Z" fill="white"/>
<path d="M6.38103 28.8925C6.4354 29.0378 6.36284 29.1831 6.21753 29.2375L4.61909 29.7644C4.49196 29.8187 4.32846 29.728 4.29209 29.6009C4.23771 29.4555 4.31028 29.3102 4.45559 29.2559L6.05403 28.729C6.18115 28.6746 6.32646 28.7472 6.38103 28.8925Z" fill="#F3F3F3"/>
<path d="M6.39907 28.8745C6.45363 29.0198 6.38107 29.1833 6.21757 29.2379L4.61913 29.7645C4.47382 29.8189 4.31032 29.7282 4.25575 29.5829C4.20138 29.4375 4.27394 29.274 4.43763 29.2197L6.03588 28.6928C6.18119 28.6566 6.34469 28.7292 6.39925 28.8747L6.39907 28.8745ZM4.29232 29.5649C4.32869 29.692 4.474 29.7647 4.60113 29.7284L6.19957 29.2015C6.32669 29.1653 6.38125 29.02 6.34488 28.8929C6.3085 28.7657 6.16319 28.693 6.03607 28.7294L4.43763 29.2562C4.3105 29.3106 4.25594 29.4377 4.29232 29.5649Z" fill="white"/>
<path d="M8.0158 26.7311C8.05198 26.8764 7.96123 27.0217 7.81592 27.0399L4.09217 27.7664C3.94686 27.8028 3.81973 27.6937 3.78355 27.5484C3.74717 27.4031 3.83792 27.2578 3.98323 27.2396L7.70698 26.513C7.8523 26.495 7.9978 26.5858 8.0158 26.7311Z" fill="#F3F3F3"/>
<path d="M8.05199 26.7314C8.08836 26.8949 7.97942 27.0402 7.83411 27.0764L4.11036 27.8029C3.96505 27.8393 3.81974 27.7304 3.78355 27.5669C3.74717 27.4034 3.85611 27.258 4.00142 27.2219L7.72517 26.4953C7.8703 26.4589 8.0158 26.5679 8.05199 26.7314ZM3.81974 27.5489C3.83792 27.6758 3.96505 27.7667 4.09217 27.7486L7.81592 27.022C7.94305 27.0038 8.0338 26.8585 7.99761 26.7314C7.97942 26.6042 7.8523 26.5133 7.72499 26.5315L4.00142 27.2581C3.8743 27.2944 3.78355 27.4215 3.81974 27.5487V27.5489Z" fill="white"/>
<path d="M5.69079 25.3325C5.70879 25.4776 5.61804 25.6049 5.47272 25.6231L3.80172 25.8228C3.65622 25.841 3.5291 25.732 3.5111 25.5865C3.49291 25.4414 3.58366 25.3143 3.72897 25.2959L5.40016 25.0962C5.52729 25.078 5.6726 25.187 5.69079 25.3325Z" fill="#F3F3F3"/>
<path d="M5.70902 25.3326C5.72702 25.4959 5.61808 25.6412 5.47277 25.6594L3.80177 25.8593C3.65627 25.8775 3.51114 25.7685 3.49295 25.605C3.47477 25.4415 3.5837 25.2962 3.72902 25.278L5.4002 25.0781C5.54533 25.06 5.69083 25.1691 5.70883 25.3324L5.70902 25.3326ZM3.51095 25.5868C3.52914 25.714 3.65645 25.8231 3.78358 25.8047L5.45458 25.605C5.5817 25.5868 5.67264 25.4597 5.65445 25.3326C5.63627 25.2053 5.50914 25.0963 5.38202 25.1145L3.71083 25.3144C3.5837 25.3326 3.49295 25.4597 3.51095 25.5868Z" fill="white"/>
<path d="M7.72504 23.5703C7.72504 23.7158 7.61629 23.8429 7.47079 23.8429H3.67466C3.52935 23.8429 3.42041 23.7158 3.42041 23.5705C3.42041 23.4252 3.52935 23.2979 3.67466 23.2979H7.47097C7.61629 23.2979 7.72541 23.4252 7.72541 23.5705L7.72504 23.5703Z" fill="#F3F3F3"/>
<path d="M7.74341 23.5704C7.74341 23.7341 7.6161 23.861 7.47078 23.861H3.67466C3.52935 23.861 3.40222 23.7339 3.40222 23.5704C3.40222 23.4071 3.52935 23.2798 3.67466 23.2798H7.47097C7.61628 23.2798 7.74341 23.4071 7.74341 23.5704ZM3.43841 23.5524C3.43841 23.6795 3.54735 23.8067 3.67466 23.8067H7.47078C7.59791 23.8067 7.70703 23.6977 7.70703 23.5524C7.70703 23.4253 7.59791 23.298 7.47078 23.298H3.67466C3.54753 23.3162 3.43841 23.4253 3.43841 23.5524Z" fill="white"/>
<path d="M5.70904 21.7361C5.69067 21.8814 5.58173 21.9904 5.43642 21.9904L3.74704 21.8632C3.60192 21.845 3.49298 21.7179 3.51098 21.5726C3.52917 21.4273 3.63829 21.3184 3.78361 21.3184L5.47279 21.4455C5.59992 21.4637 5.70904 21.5908 5.70904 21.7361Z" fill="#E2E2E2"/>
<path d="M5.72701 21.7357C5.70883 21.8992 5.5817 22.0082 5.43639 22.0082L3.74701 21.8811C3.60189 21.8629 3.47476 21.7357 3.49295 21.5722C3.51095 21.4089 3.63826 21.2998 3.78358 21.2998L5.47276 21.4269C5.61808 21.4451 5.72701 21.5904 5.72701 21.7357ZM3.51095 21.5722C3.49295 21.6994 3.60189 21.8267 3.72901 21.8267L5.41839 21.9538C5.54533 21.9538 5.65445 21.8629 5.67264 21.7176C5.69083 21.5904 5.5817 21.4633 5.45458 21.4633L3.7652 21.3362C3.63826 21.3362 3.52914 21.4449 3.51095 21.5722Z" fill="white"/>
<path d="M8.05204 20.4099C8.01566 20.5552 7.88854 20.6461 7.74323 20.6279L4.01966 19.865C3.87435 19.8286 3.78341 19.7015 3.81979 19.5562C3.85616 19.4109 3.98329 19.3199 4.1286 19.3383L7.85235 20.083C7.97948 20.1192 8.07023 20.2645 8.05204 20.4099Z" fill="#F3F3F3"/>
<path d="M8.07017 20.4099C8.0338 20.5734 7.88849 20.6644 7.74317 20.6462L4.01961 19.9014C3.8743 19.865 3.76536 19.7197 3.80174 19.5564C3.83792 19.3927 3.98324 19.302 4.12855 19.3202L7.8523 20.0649C7.99761 20.1013 8.08836 20.2466 8.07017 20.4099ZM3.83792 19.5562C3.81974 19.6834 3.8923 19.8105 4.01961 19.8469L7.74336 20.5916C7.87049 20.6098 7.99761 20.5372 8.03399 20.3917C8.05199 20.2646 7.97942 20.1375 7.85211 20.1011L4.12874 19.3565C3.98342 19.3384 3.8743 19.4291 3.83792 19.5562Z" fill="white"/>
<path d="M6.41735 18.2306C6.40901 18.2652 6.39394 18.2978 6.37299 18.3266C6.35203 18.3554 6.32562 18.3797 6.29525 18.3983C6.26488 18.4168 6.23115 18.4292 6.19599 18.4347C6.16083 18.4402 6.12494 18.4387 6.09035 18.4303L4.45554 17.9762C4.31023 17.9398 4.23767 17.7945 4.27385 17.6492C4.28219 17.6146 4.29727 17.582 4.31822 17.5532C4.33917 17.5245 4.36559 17.5001 4.39596 17.4816C4.42633 17.463 4.46006 17.4506 4.49521 17.4451C4.53037 17.4396 4.56627 17.4411 4.60085 17.4495L6.23567 17.9036C6.38098 17.9398 6.45354 18.0853 6.41735 18.2306Z" fill="#F3F3F3"/>
<path d="M6.43539 18.2306C6.3992 18.3757 6.2357 18.4849 6.09039 18.4303L4.45558 17.9762C4.31026 17.9398 4.21933 17.7763 4.2557 17.6312C4.29208 17.4857 4.45558 17.3767 4.60089 17.4313L6.2357 17.8854C6.38101 17.9218 6.47195 18.0673 6.43539 18.2306ZM4.31026 17.6308C4.27389 17.7581 4.34664 17.9034 4.47376 17.9396L6.10858 18.3937C6.2357 18.4301 6.36283 18.3574 6.3992 18.2121C6.43539 18.0849 6.36283 17.9396 6.2357 17.9034L4.60089 17.4493C4.47376 17.4311 4.34664 17.5035 4.31026 17.6308Z" fill="white"/>
<path d="M8.97843 17.3586C8.92406 17.5037 8.76037 17.5583 8.63343 17.5037L5.12756 16.0506C5.00043 15.9962 4.92787 15.8327 4.98224 15.7056C5.03681 15.5603 5.20031 15.5057 5.32743 15.5603L8.83312 17.0134C8.97843 17.0678 9.03299 17.2315 8.97843 17.3586Z" fill="#F3F3F3"/>
<path d="M8.9966 17.3766C8.97 17.4464 8.91682 17.5028 8.8487 17.5335C8.78059 17.5641 8.7031 17.5665 8.63323 17.5401L5.12754 16.087C4.98223 16.0326 4.92785 15.8691 4.98223 15.7056C5.00882 15.6358 5.06201 15.5794 5.13012 15.5488C5.19824 15.5181 5.27572 15.5157 5.3456 15.5421L8.85129 16.9952C8.9966 17.0678 9.05098 17.2315 8.9966 17.3766ZM5.0186 15.7238C4.96423 15.8509 5.0186 15.9962 5.14573 16.0506L8.65141 17.5037C8.77854 17.5583 8.90566 17.4856 8.96023 17.3584C9.0146 17.2313 8.96023 17.086 8.8331 17.0316L5.32741 15.5785C5.20029 15.5421 5.05498 15.5967 5.0186 15.7238Z" fill="white"/>
<path d="M7.7978 14.9065C7.72524 15.0336 7.57993 15.0882 7.4528 15.0336L5.94512 14.2708C5.81799 14.2163 5.76343 14.0528 5.83618 13.9075C5.90874 13.7803 6.05405 13.7258 6.18118 13.7803L7.68868 14.5433C7.81599 14.6158 7.87055 14.7795 7.7978 14.9065Z" fill="#F3F3F3"/>
<path d="M7.81598 14.9244C7.74323 15.0698 7.57973 15.1243 7.43441 15.0516L5.92691 14.2886C5.7816 14.2161 5.72704 14.0526 5.79979 13.9073C5.87235 13.7619 6.03604 13.7074 6.18116 13.7801L7.68866 14.5431C7.83416 14.5974 7.88854 14.7793 7.81598 14.9244ZM5.85416 13.9254C5.79979 14.0526 5.83616 14.1979 5.96329 14.2524L7.47079 15.0154C7.57991 15.0698 7.72523 15.0154 7.79779 14.9063C7.85216 14.7791 7.81598 14.6338 7.68885 14.5793L6.16279 13.8167C6.05385 13.7623 5.90854 13.7985 5.85398 13.9256L5.85416 13.9254Z" fill="white"/>
<path d="M10.4677 14.5611C10.377 14.6884 10.2317 14.7248 10.1045 14.6339L6.96204 12.5451C6.8351 12.4724 6.81691 12.3089 6.88947 12.1817C6.96222 12.0546 7.12572 12.0182 7.25285 12.109L10.4133 14.2161C10.5223 14.2889 10.5587 14.4524 10.4677 14.5611Z" fill="#F3F3F3"/>
<path d="M10.4859 14.5792C10.3952 14.7065 10.2135 14.7427 10.0866 14.6702L6.94406 12.563C6.81693 12.4723 6.78056 12.3088 6.87131 12.1637C6.96224 12.0363 7.14393 12 7.27106 12.0727L10.4134 14.1797C10.5587 14.2706 10.5769 14.4521 10.4859 14.5792ZM6.90768 12.1817C6.83512 12.2906 6.85331 12.4541 6.96206 12.5267L10.1227 14.634C10.2317 14.7067 10.377 14.6703 10.4497 14.5614C10.5223 14.4523 10.5041 14.2888 10.3954 14.2162L7.23449 12.1091C7.12556 12.0363 6.98043 12.0727 6.90768 12.1817Z" fill="white"/>
<path d="M9.79573 11.9277C9.70498 12.0366 9.54148 12.073 9.43255 11.982L8.10655 10.9468C7.99761 10.8559 7.97942 10.6924 8.07017 10.5835C8.16092 10.4745 8.32442 10.4382 8.43355 10.5291L9.75936 11.5643C9.86848 11.6552 9.88667 11.8185 9.79573 11.9277Z" fill="#F3F3F3"/>
<path d="M9.81396 11.9455C9.72321 12.0728 9.54152 12.091 9.4144 12.0001L8.0884 10.9649C7.96127 10.8741 7.94308 10.6924 8.03402 10.5655C8.12477 10.4382 8.30646 10.42 8.4334 10.5109L9.7594 11.5461C9.88671 11.6371 9.9049 11.8186 9.81396 11.9459V11.9455ZM8.07021 10.5833C7.97946 10.6922 7.99765 10.8376 8.10658 10.9283L9.43258 11.9639C9.54152 12.0364 9.68683 12.0183 9.77758 11.9093C9.86852 11.8004 9.85033 11.6551 9.7414 11.5643L8.4154 10.5287C8.30646 10.4562 8.16077 10.4744 8.07021 10.5833Z" fill="white"/>
<path d="M12.5021 12.1091C12.3934 12.2182 12.2297 12.2182 12.139 12.1091L9.43277 9.43908C9.32383 9.33014 9.34183 9.16664 9.43277 9.0757C9.54171 8.96695 9.70521 8.96695 9.79596 9.0757L12.4843 11.7459C12.5933 11.8366 12.5933 12.0183 12.5025 12.1093L12.5021 12.1091Z" fill="#F3F3F3"/>
<path d="M12.5022 12.1275C12.4489 12.1798 12.3772 12.2091 12.3025 12.2091C12.2278 12.2091 12.1561 12.1798 12.1028 12.1275L9.41423 9.45708C9.36179 9.40377 9.3324 9.33199 9.3324 9.25721C9.3324 9.18242 9.36179 9.11064 9.41423 9.05733C9.46753 9.00494 9.53928 8.97559 9.61402 8.97559C9.68875 8.97559 9.7605 9.00494 9.8138 9.05733L12.5022 11.7275C12.6293 11.8365 12.6293 12.0181 12.5022 12.1271V12.1275ZM9.45098 9.09371C9.36005 9.18464 9.36005 9.34814 9.45098 9.43871L12.1392 12.1089C12.2301 12.1998 12.3934 12.1998 12.4842 12.1089C12.5751 12.0181 12.5751 11.8546 12.4842 11.7639L9.79598 9.07571C9.70523 8.98496 9.55973 8.98477 9.45098 9.09371Z" fill="white"/>
<path d="M12.3388 9.40251C12.2299 9.49345 12.0664 9.49345 11.9754 9.38432L10.8673 8.11289C10.7768 8.00395 10.7948 7.84045 10.9039 7.7497C11.0126 7.65876 11.1763 7.65876 11.2671 7.7677L12.3752 9.03932C12.4659 9.13007 12.4478 9.29357 12.3388 9.40251Z" fill="#F3F3F3"/>
<path d="M12.357 9.40264C12.2299 9.51158 12.0664 9.49358 11.9573 9.38445L10.8493 8.11301C10.7404 8.00408 10.7586 7.82239 10.8857 7.71345C11.0128 7.60433 11.1763 7.62251 11.2853 7.73164L12.3934 9.00289C12.4842 9.1302 12.4842 9.31189 12.357 9.40264ZM10.9039 7.74983C10.7948 7.84058 10.7948 7.98589 10.8675 8.09483L11.9757 9.36626C12.0664 9.4572 12.2117 9.47539 12.3207 9.38445C12.4296 9.2937 12.4296 9.1482 12.357 9.03945L11.2489 7.76783C11.1582 7.65908 11.0127 7.65908 10.9039 7.74983Z" fill="white"/>
<path d="M14.9545 10.0932C14.8273 10.1839 14.6638 10.1476 14.5911 10.0204L12.466 6.87793C12.3932 6.7508 12.4296 6.5873 12.5385 6.51474C12.6656 6.42399 12.8291 6.46036 12.9019 6.58749L15.0088 9.7298C15.0998 9.85693 15.0634 10.0206 14.9545 10.0932Z" fill="#F3F3F3"/>
<path d="M14.9545 10.1108C14.8273 10.2017 14.6456 10.1651 14.5547 10.0382L12.4478 6.8957C12.357 6.76858 12.3934 6.58708 12.5385 6.49633C12.6656 6.40539 12.8473 6.44176 12.9383 6.56889L15.0452 9.7112C15.136 9.85651 15.0996 10.02 14.9545 10.1108ZM12.5565 6.53251C12.4476 6.60508 12.4112 6.75039 12.484 6.85951L14.5909 10.0018C14.6636 10.1108 14.809 10.129 14.9359 10.0562C15.045 9.98364 15.0814 9.83833 15.0086 9.72939L12.9019 6.60508C12.8291 6.49633 12.6656 6.45976 12.5569 6.53251H12.5565Z" fill="white"/>
<path d="M15.3359 7.40482C15.2087 7.47738 15.0452 7.44119 14.9727 7.31407L14.137 5.84275C14.0644 5.71563 14.1188 5.55213 14.2461 5.47938C14.3732 5.40682 14.5367 5.443 14.6093 5.57032L15.4448 7.04144C15.4994 7.16857 15.4628 7.33207 15.3359 7.40482Z" fill="#F3F3F3"/>
<path d="M15.3358 7.423C15.1905 7.49557 15.027 7.45938 14.9545 7.33207L14.1188 5.86094C14.0462 5.73363 14.0826 5.55213 14.2279 5.47938C14.3732 5.40682 14.5367 5.443 14.6093 5.57032L15.4448 7.04144C15.5175 7.16857 15.481 7.33207 15.3358 7.423ZM14.2461 5.49757C14.137 5.57013 14.0826 5.71544 14.1551 5.82457L14.9908 7.29588C15.0634 7.40463 15.2087 7.44119 15.3176 7.38663C15.4268 7.31407 15.4811 7.16857 15.4086 7.05963L14.5729 5.58832C14.5185 5.47957 14.355 5.42482 14.2461 5.49757Z" fill="white"/>
<path d="M17.7516 8.60367C17.6064 8.65805 17.4609 8.60367 17.4066 8.47655L15.9352 4.97067C15.8809 4.84355 15.9534 4.68005 16.0806 4.62548C16.2259 4.57111 16.3712 4.62548 16.4256 4.75261L17.8969 8.2583C17.9514 8.38542 17.8789 8.54892 17.7516 8.6033V8.60367Z" fill="#F3F3F3"/>
<path d="M17.7516 8.62148C17.6065 8.67585 17.443 8.62148 17.3702 8.47598L15.8989 4.97048C15.8725 4.9006 15.8749 4.82312 15.9056 4.755C15.9362 4.68689 15.9926 4.6337 16.0624 4.6071C16.2077 4.55273 16.3712 4.6071 16.444 4.75242L17.9151 8.2581C17.9697 8.38523 17.8969 8.54873 17.7516 8.62148ZM16.0988 4.64348C15.9717 4.69785 15.9171 4.84335 15.9717 4.95229L17.4428 8.45779C17.4972 8.58492 17.6425 8.63929 17.7696 8.58492C17.8967 8.53054 17.9515 8.38504 17.8967 8.2761L16.4256 4.77042C16.3529 4.64329 16.2257 4.58873 16.0986 4.64329L16.0988 4.64348Z" fill="white"/>
<path d="M18.6416 6.02417C18.4963 6.07854 18.351 6.00579 18.2966 5.86067L17.7697 4.26204C17.7154 4.13492 17.8061 3.97142 17.9332 3.93523C18.0604 3.89886 18.2239 3.95342 18.2782 4.09873L18.8051 5.69717C18.8595 5.82429 18.7869 5.96979 18.6416 6.02417Z" fill="#F3F3F3"/>
<path d="M18.6599 6.04218C18.59 6.06851 18.5126 6.06609 18.4445 6.03544C18.3765 6.0048 18.3233 5.94843 18.2967 5.87868L17.7698 4.28025C17.7155 4.13493 17.8062 3.97162 17.9517 3.91706C18.0216 3.89073 18.099 3.89315 18.1671 3.9238C18.2351 3.95444 18.2883 4.01081 18.3149 4.08056L18.8416 5.679C18.878 5.82431 18.8052 5.98781 18.6599 6.04218ZM17.9515 3.95343C17.8244 3.98962 17.7517 4.13493 17.788 4.26206L18.3149 5.86068C18.3511 5.98781 18.4964 6.04218 18.6237 6.00581C18.7508 5.96962 18.8234 5.82431 18.787 5.69718L18.2603 4.09856C18.2511 4.06772 18.2354 4.03918 18.2144 4.0148C18.1934 3.99041 18.1675 3.97072 18.1383 3.95702C18.1092 3.94331 18.0775 3.93589 18.0453 3.93524C18.0132 3.93459 17.9812 3.94072 17.9515 3.95325V3.95343Z" fill="white"/>
<path d="M20.7851 7.67681C20.6398 7.71318 20.4945 7.62243 20.4763 7.47693L19.7133 3.75337C19.677 3.60806 19.7861 3.48093 19.9312 3.44456C20.0767 3.40818 20.2219 3.49893 20.24 3.64443L21.0032 7.36818C21.0212 7.49512 20.9304 7.64043 20.7851 7.67681Z" fill="#F3F3F3"/>
<path d="M20.7851 7.69511C20.6216 7.73148 20.4763 7.62236 20.4399 7.47705L19.677 3.75348C19.6406 3.60817 19.7497 3.44467 19.895 3.42648C20.0585 3.39011 20.2038 3.49923 20.24 3.64455L21.0032 7.3683C21.0393 7.51342 20.9486 7.65892 20.7851 7.69511ZM19.9314 3.46286C19.8041 3.48105 19.7133 3.60817 19.7315 3.75348L20.4945 7.47723C20.5127 7.60417 20.6578 7.69511 20.7851 7.65873C20.9122 7.64055 21.003 7.51342 20.9848 7.36811L20.2218 3.64436C20.1857 3.51742 20.0587 3.44467 19.9314 3.46286Z" fill="white"/>
<path d="M22.1655 5.31578C22.0202 5.33397 21.8931 5.24322 21.8567 5.09791L21.6388 3.42672C21.6206 3.28141 21.7296 3.15428 21.8751 3.1361C22.0202 3.11791 22.1473 3.20885 22.1837 3.35416L22.4016 5.02516C22.4198 5.17047 22.3108 5.2976 22.1655 5.31578Z" fill="#F3F3F3"/>
<path d="M22.1655 5.33373C22.002 5.35192 21.8567 5.24298 21.8385 5.09748L21.6206 3.42648C21.6024 3.28117 21.7114 3.13586 21.8749 3.11767C22.0384 3.09967 22.1837 3.20861 22.2019 3.35392L22.4198 5.02492C22.4379 5.17023 22.329 5.31555 22.1655 5.33373ZM21.8931 3.15405C21.7659 3.17223 21.6568 3.29936 21.675 3.42648L21.8931 5.09767C21.9113 5.2248 22.0384 5.31555 22.1655 5.29736C22.2926 5.27936 22.4018 5.15205 22.3836 5.02492L22.1655 3.35392C22.1473 3.2268 22.0202 3.13586 21.8931 3.15405Z" fill="white"/>
<path d="M24.1273 45.1131C36.0049 45.1131 45.6336 35.4844 45.6336 23.6068C45.6336 11.7293 36.0049 2.10059 24.1273 2.10059C12.2498 2.10059 2.62109 11.7293 2.62109 23.6068C2.62109 35.4844 12.2498 45.1131 24.1273 45.1131Z" fill="url(#paint2_linear_657_111443)" fill-opacity="0.2"/>
<g filter="url(#filter0_d_657_111443)">
<path d="M39.0217 9.96582L21.675 21.0823H21.6568V21.1003L21.6386 21.1185L10.8131 38.9739L26.7247 26.1683L26.7429 26.1503V26.1321L39.0219 9.96601L39.0217 9.96582Z" fill="black" fill-opacity="0.05"/>
</g>
<path d="M38.6947 8.93018L21.5479 21.1182L26.6338 26.1678L38.6947 8.93018Z" fill="#CD151E"/>
<path d="M21.566 21.0821L24.1273 23.6067L38.6947 8.93018L21.566 21.0821Z" fill="#FA5153"/>
<path d="M21.5661 21.0822L26.652 26.1316L9.50513 38.3198L21.5661 21.082V21.0822Z" fill="#ACACAC"/>
<path d="M9.50513 38.3198L24.1271 23.6069L21.5659 21.082L9.50513 38.3198Z" fill="#EEEEEE"/>
</g>
<defs>
<filter id="filter0_d_657_111443" x="-28.2494" y="-19.3311" width="106.334" height="107.133" filterUnits="userSpaceOnUse" color-interpolation-filters="sRGB">
<feFlood flood-opacity="0" result="BackgroundImageFix"/>
<feColorMatrix in="SourceAlpha" type="matrix" values="0 0 0 0 0 0 0 0 0 0 0 0 0 0 0 0 0 0 127 0" result="hardAlpha"/>
<feOffset dy="9.76562"/>
<feGaussianBlur stdDeviation="19.5312"/>
<feColorMatrix type="matrix" values="0 0 0 0 0 0 0 0 0 0 0 0 0 0 0 0 0 0 0.0509804 0"/>
<feBlend mode="normal" in2="BackgroundImageFix" result="effect1_dropShadow_657_111443"/>
<feBlend mode="normal" in="SourceGraphic" in2="effect1_dropShadow_657_111443" result="shape"/>
</filter>
<linearGradient id="paint0_linear_657_111443" x1="2325.75" y1="4650.38" x2="2325.75" y2="0.375" gradientUnits="userSpaceOnUse">
<stop offset="0.25" stop-color="#DBDBDA"/>
<stop offset="1" stop-color="white"/>
</linearGradient>
<radialGradient id="paint1_radial_657_111443" cx="0" cy="0" r="1" gradientUnits="userSpaceOnUse" gradientTransform="translate(2455.28 1680.34) scale(2625.14)">
<stop offset="0%" stop-color="#2ABCE1"/>
<stop offset="0.11363" stop-color="#2ABBE1"/>
<stop offset="1" stop-color="#3375F8"/>
</radialGradient>
<linearGradient id="paint2_linear_657_111443" x1="2112.38" y1="1537.78" x2="1108.6" y2="3338.67" gradientUnits="userSpaceOnUse">
<stop stop-opacity="0"/>
<stop offset="1"/>
</linearGradient>
<clipPath id="clip0_657_111443">
<rect width="48" height="48" fill="white"/>
</clipPath>
</defs>
</svg>
