<svg class="shrink-0" id="svgQrWrapper" viewBox="0 0 300 300" xmlns="http://www.w3.org/2000/svg" xmlns:xlink="http://www.w3.org/1999/xlink" width="300" height="300">
  <g transform="translate(9, 9)scale(0.95)" fill="none">
    <svg width="300" height="300">
      <defs />
      <g fill="currentColor" class="fill-black dark:fill-white">
        <rect x="5" y="85" width="10" height="10" transform="rotate(0,10,90)" />
        <rect x="5" y="95" width="10" height="10" transform="rotate(0,10,100)" />
        <rect x="5" y="105" width="10" height="10" transform="rotate(0,10,110)" />
        <rect x="5" y="115" width="10" height="10" transform="rotate(0,10,120)" />
        <rect x="5" y="135" width="10" height="10" transform="rotate(0,10,140)" />
        <rect x="5" y="145" width="10" height="10" transform="rotate(0,10,150)" />
        <rect x="5" y="175" width="10" height="10" transform="rotate(0,10,180)" />
        <rect x="5" y="185" width="10" height="10" transform="rotate(0,10,190)" />
        <rect x="15" y="95" width="10" height="10" transform="rotate(0,20,100)" />
        <rect x="15" y="105" width="10" height="10" transform="rotate(0,20,110)" />
        <rect x="15" y="125" width="10" height="10" transform="rotate(0,20,130)" />
        <rect x="15" y="175" width="10" height="10" transform="rotate(0,20,180)" />
        <rect x="15" y="185" width="10" height="10" transform="rotate(0,20,190)" />
        <rect x="15" y="195" width="10" height="10" transform="rotate(0,20,200)" />
        <rect x="25" y="85" width="10" height="10" transform="rotate(0,30,90)" />
        <rect x="25" y="105" width="10" height="10" transform="rotate(0,30,110)" />
        <rect x="25" y="165" width="10" height="10" transform="rotate(0,30,170)" />
        <rect x="25" y="175" width="10" height="10" transform="rotate(0,30,180)" />
        <rect x="25" y="195" width="10" height="10" transform="rotate(0,30,200)" />
        <rect x="25" y="205" width="10" height="10" transform="rotate(0,30,210)" />
        <rect x="35" y="85" width="10" height="10" transform="rotate(0,40,90)" />
        <rect x="35" y="105" width="10" height="10" transform="rotate(0,40,110)" />
        <rect x="35" y="115" width="10" height="10" transform="rotate(0,40,120)" />
        <rect x="35" y="135" width="10" height="10" transform="rotate(0,40,140)" />
        <rect x="35" y="155" width="10" height="10" transform="rotate(0,40,160)" />
        <rect x="35" y="165" width="10" height="10" transform="rotate(0,40,170)" />
        <rect x="35" y="185" width="10" height="10" transform="rotate(0,40,190)" />
        <rect x="45" y="105" width="10" height="10" transform="rotate(0,50,110)" />
        <rect x="45" y="135" width="10" height="10" transform="rotate(0,50,140)" />
        <rect x="45" y="165" width="10" height="10" transform="rotate(0,50,170)" />
        <rect x="45" y="205" width="10" height="10" transform="rotate(0,50,210)" />
        <rect x="55" y="85" width="10" height="10" transform="rotate(0,60,90)" />
        <rect x="55" y="135" width="10" height="10" transform="rotate(0,60,140)" />
        <rect x="55" y="155" width="10" height="10" transform="rotate(0,60,160)" />
        <rect x="55" y="165" width="10" height="10" transform="rotate(0,60,170)" />
        <rect x="55" y="195" width="10" height="10" transform="rotate(0,60,200)" />
        <rect x="65" y="85" width="10" height="10" transform="rotate(0,70,90)" />
        <rect x="65" y="105" width="10" height="10" transform="rotate(0,70,110)" />
        <rect x="65" y="125" width="10" height="10" transform="rotate(0,70,130)" />
        <rect x="65" y="145" width="10" height="10" transform="rotate(0,70,150)" />
        <rect x="65" y="165" width="10" height="10" transform="rotate(0,70,170)" />
        <rect x="65" y="185" width="10" height="10" transform="rotate(0,70,190)" />
        <rect x="65" y="205" width="10" height="10" transform="rotate(0,70,210)" />
        <rect x="75" y="85" width="10" height="10" transform="rotate(0,80,90)" />
        <rect x="75" y="95" width="10" height="10" transform="rotate(0,80,100)" />
        <rect x="75" y="105" width="10" height="10" transform="rotate(0,80,110)" />
        <rect x="75" y="125" width="10" height="10" transform="rotate(0,80,130)" />
        <rect x="75" y="135" width="10" height="10" transform="rotate(0,80,140)" />
        <rect x="75" y="175" width="10" height="10" transform="rotate(0,80,180)" />
        <rect x="75" y="185" width="10" height="10" transform="rotate(0,80,190)" />
        <rect x="75" y="205" width="10" height="10" transform="rotate(0,80,210)" />
        <rect x="85" y="15" width="10" height="10" transform="rotate(0,90,20)" />
        <rect x="85" y="35" width="10" height="10" transform="rotate(0,90,40)" />
        <rect x="85" y="55" width="10" height="10" transform="rotate(0,90,60)" />
        <rect x="85" y="65" width="10" height="10" transform="rotate(0,90,70)" />
        <rect x="85" y="75" width="10" height="10" transform="rotate(0,90,80)" />
        <rect x="85" y="85" width="10" height="10" transform="rotate(0,90,90)" />
        <rect x="85" y="115" width="10" height="10" transform="rotate(0,90,120)" />
        <rect x="85" y="125" width="10" height="10" transform="rotate(0,90,130)" />
        <rect x="85" y="135" width="10" height="10" transform="rotate(0,90,140)" />
        <rect x="85" y="145" width="10" height="10" transform="rotate(0,90,150)" />
        <rect x="85" y="175" width="10" height="10" transform="rotate(0,90,180)" />
        <rect x="85" y="185" width="10" height="10" transform="rotate(0,90,190)" />
        <rect x="85" y="215" width="10" height="10" transform="rotate(0,90,220)" />
        <rect x="85" y="225" width="10" height="10" transform="rotate(0,90,230)" />
        <rect x="85" y="235" width="10" height="10" transform="rotate(0,90,240)" />
        <rect x="85" y="255" width="10" height="10" transform="rotate(0,90,260)" />
        <rect x="85" y="265" width="10" height="10" transform="rotate(0,90,270)" />
        <rect x="85" y="285" width="10" height="10" transform="rotate(0,90,290)" />
        <rect x="95" y="5" width="10" height="10" transform="rotate(0,100,10)" />
        <rect x="95" y="25" width="10" height="10" transform="rotate(0,100,30)" />
        <rect x="95" y="45" width="10" height="10" transform="rotate(0,100,50)" />
        <rect x="95" y="75" width="10" height="10" transform="rotate(0,100,80)" />
        <rect x="95" y="85" width="10" height="10" transform="rotate(0,100,90)" />
        <rect x="95" y="115" width="10" height="10" transform="rotate(0,100,120)" />
        <rect x="95" y="125" width="10" height="10" transform="rotate(0,100,130)" />
        <rect x="95" y="135" width="10" height="10" transform="rotate(0,100,140)" />
        <rect x="95" y="145" width="10" height="10" transform="rotate(0,100,150)" />
        <rect x="95" y="175" width="10" height="10" transform="rotate(0,100,180)" />
        <rect x="95" y="185" width="10" height="10" transform="rotate(0,100,190)" />
        <rect x="95" y="195" width="10" height="10" transform="rotate(0,100,200)" />
        <rect x="95" y="215" width="10" height="10" transform="rotate(0,100,220)" />
        <rect x="95" y="265" width="10" height="10" transform="rotate(0,100,270)" />
        <rect x="95" y="285" width="10" height="10" transform="rotate(0,100,290)" />
        <rect x="105" y="55" width="10" height="10" transform="rotate(0,110,60)" />
        <rect x="105" y="65" width="10" height="10" transform="rotate(0,110,70)" />
        <rect x="105" y="105" width="10" height="10" transform="rotate(0,110,110)" />
        <rect x="105" y="115" width="10" height="10" transform="rotate(0,110,120)" />
        <rect x="105" y="185" width="10" height="10" transform="rotate(0,110,190)" />
        <rect x="105" y="195" width="10" height="10" transform="rotate(0,110,200)" />
        <rect x="105" y="225" width="10" height="10" transform="rotate(0,110,230)" />
        <rect x="105" y="275" width="10" height="10" transform="rotate(0,110,280)" />
        <rect x="115" y="75" width="10" height="10" transform="rotate(0,120,80)" />
        <rect x="115" y="85" width="10" height="10" transform="rotate(0,120,90)" />
        <rect x="115" y="95" width="10" height="10" transform="rotate(0,120,100)" />
        <rect x="115" y="105" width="10" height="10" transform="rotate(0,120,110)" />
        <rect x="115" y="115" width="10" height="10" transform="rotate(0,120,120)" />
        <rect x="115" y="125" width="10" height="10" transform="rotate(0,120,130)" />
        <rect x="115" y="145" width="10" height="10" transform="rotate(0,120,150)" />
        <rect x="115" y="155" width="10" height="10" transform="rotate(0,120,160)" />
        <rect x="115" y="185" width="10" height="10" transform="rotate(0,120,190)" />
        <rect x="115" y="205" width="10" height="10" transform="rotate(0,120,210)" />
        <rect x="115" y="215" width="10" height="10" transform="rotate(0,120,220)" />
        <rect x="115" y="225" width="10" height="10" transform="rotate(0,120,230)" />
        <rect x="115" y="265" width="10" height="10" transform="rotate(0,120,270)" />
        <rect x="115" y="275" width="10" height="10" transform="rotate(0,120,280)" />
        <rect x="125" y="15" width="10" height="10" transform="rotate(0,130,20)" />
        <rect x="125" y="25" width="10" height="10" transform="rotate(0,130,30)" />
        <rect x="125" y="65" width="10" height="10" transform="rotate(0,130,70)" />
        <rect x="125" y="75" width="10" height="10" transform="rotate(0,130,80)" />
        <rect x="125" y="85" width="10" height="10" transform="rotate(0,130,90)" />
        <rect x="125" y="105" width="10" height="10" transform="rotate(0,130,110)" />
        <rect x="125" y="145" width="10" height="10" transform="rotate(0,130,150)" />
        <rect x="125" y="175" width="10" height="10" transform="rotate(0,130,180)" />
        <rect x="125" y="205" width="10" height="10" transform="rotate(0,130,210)" />
        <rect x="125" y="225" width="10" height="10" transform="rotate(0,130,230)" />
        <rect x="125" y="235" width="10" height="10" transform="rotate(0,130,240)" />
        <rect x="125" y="255" width="10" height="10" transform="rotate(0,130,260)" />
        <rect x="125" y="265" width="10" height="10" transform="rotate(0,130,270)" />
        <rect x="135" y="5" width="10" height="10" transform="rotate(0,140,10)" />
        <rect x="135" y="25" width="10" height="10" transform="rotate(0,140,30)" />
        <rect x="135" y="35" width="10" height="10" transform="rotate(0,140,40)" />
        <rect x="135" y="45" width="10" height="10" transform="rotate(0,140,50)" />
        <rect x="135" y="105" width="10" height="10" transform="rotate(0,140,110)" />
        <rect x="135" y="115" width="10" height="10" transform="rotate(0,140,120)" />
        <rect x="135" y="125" width="10" height="10" transform="rotate(0,140,130)" />
        <rect x="135" y="145" width="10" height="10" transform="rotate(0,140,150)" />
        <rect x="135" y="155" width="10" height="10" transform="rotate(0,140,160)" />
        <rect x="135" y="185" width="10" height="10" transform="rotate(0,140,190)" />
        <rect x="135" y="195" width="10" height="10" transform="rotate(0,140,200)" />
        <rect x="135" y="205" width="10" height="10" transform="rotate(0,140,210)" />
        <rect x="135" y="215" width="10" height="10" transform="rotate(0,140,220)" />
        <rect x="135" y="235" width="10" height="10" transform="rotate(0,140,240)" />
        <rect x="135" y="255" width="10" height="10" transform="rotate(0,140,260)" />
        <rect x="135" y="275" width="10" height="10" transform="rotate(0,140,280)" />
        <rect x="145" y="5" width="10" height="10" transform="rotate(0,150,10)" />
        <rect x="145" y="15" width="10" height="10" transform="rotate(0,150,20)" />
        <rect x="145" y="25" width="10" height="10" transform="rotate(0,150,30)" />
        <rect x="145" y="35" width="10" height="10" transform="rotate(0,150,40)" />
        <rect x="145" y="65" width="10" height="10" transform="rotate(0,150,70)" />
        <rect x="145" y="75" width="10" height="10" transform="rotate(0,150,80)" />
        <rect x="145" y="85" width="10" height="10" transform="rotate(0,150,90)" />
        <rect x="145" y="95" width="10" height="10" transform="rotate(0,150,100)" />
        <rect x="145" y="105" width="10" height="10" transform="rotate(0,150,110)" />
        <rect x="145" y="125" width="10" height="10" transform="rotate(0,150,130)" />
        <rect x="145" y="145" width="10" height="10" transform="rotate(0,150,150)" />
        <rect x="145" y="165" width="10" height="10" transform="rotate(0,150,170)" />
        <rect x="145" y="205" width="10" height="10" transform="rotate(0,150,210)" />
        <rect x="145" y="285" width="10" height="10" transform="rotate(0,150,290)" />
        <rect x="155" y="15" width="10" height="10" transform="rotate(0,160,20)" />
        <rect x="155" y="45" width="10" height="10" transform="rotate(0,160,50)" />
        <rect x="155" y="55" width="10" height="10" transform="rotate(0,160,60)" />
        <rect x="155" y="85" width="10" height="10" transform="rotate(0,160,90)" />
        <rect x="155" y="95" width="10" height="10" transform="rotate(0,160,100)" />
        <rect x="155" y="105" width="10" height="10" transform="rotate(0,160,110)" />
        <rect x="155" y="115" width="10" height="10" transform="rotate(0,160,120)" />
        <rect x="155" y="145" width="10" height="10" transform="rotate(0,160,150)" />
        <rect x="155" y="195" width="10" height="10" transform="rotate(0,160,200)" />
        <rect x="155" y="205" width="10" height="10" transform="rotate(0,160,210)" />
        <rect x="155" y="235" width="10" height="10" transform="rotate(0,160,240)" />
        <rect x="165" y="5" width="10" height="10" transform="rotate(0,170,10)" />
        <rect x="165" y="25" width="10" height="10" transform="rotate(0,170,30)" />
        <rect x="165" y="45" width="10" height="10" transform="rotate(0,170,50)" />
        <rect x="165" y="65" width="10" height="10" transform="rotate(0,170,70)" />
        <rect x="165" y="95" width="10" height="10" transform="rotate(0,170,100)" />
        <rect x="165" y="105" width="10" height="10" transform="rotate(0,170,110)" />
        <rect x="165" y="115" width="10" height="10" transform="rotate(0,170,120)" />
        <rect x="165" y="155" width="10" height="10" transform="rotate(0,170,160)" />
        <rect x="165" y="165" width="10" height="10" transform="rotate(0,170,170)" />
        <rect x="165" y="205" width="10" height="10" transform="rotate(0,170,210)" />
        <rect x="165" y="215" width="10" height="10" transform="rotate(0,170,220)" />
        <rect x="165" y="245" width="10" height="10" transform="rotate(0,170,250)" />
        <rect x="165" y="275" width="10" height="10" transform="rotate(0,170,280)" />
        <rect x="165" y="285" width="10" height="10" transform="rotate(0,170,290)" />
        <rect x="175" y="25" width="10" height="10" transform="rotate(0,180,30)" />
        <rect x="175" y="45" width="10" height="10" transform="rotate(0,180,50)" />
        <rect x="175" y="55" width="10" height="10" transform="rotate(0,180,60)" />
        <rect x="175" y="85" width="10" height="10" transform="rotate(0,180,90)" />
        <rect x="175" y="95" width="10" height="10" transform="rotate(0,180,100)" />
        <rect x="175" y="105" width="10" height="10" transform="rotate(0,180,110)" />
        <rect x="175" y="135" width="10" height="10" transform="rotate(0,180,140)" />
        <rect x="175" y="155" width="10" height="10" transform="rotate(0,180,160)" />
        <rect x="175" y="215" width="10" height="10" transform="rotate(0,180,220)" />
        <rect x="175" y="235" width="10" height="10" transform="rotate(0,180,240)" />
        <rect x="175" y="265" width="10" height="10" transform="rotate(0,180,270)" />
        <rect x="175" y="275" width="10" height="10" transform="rotate(0,180,280)" />
        <rect x="175" y="285" width="10" height="10" transform="rotate(0,180,290)" />
        <rect x="185" y="5" width="10" height="10" transform="rotate(0,190,10)" />
        <rect x="185" y="35" width="10" height="10" transform="rotate(0,190,40)" />
        <rect x="185" y="45" width="10" height="10" transform="rotate(0,190,50)" />
        <rect x="185" y="65" width="10" height="10" transform="rotate(0,190,70)" />
        <rect x="185" y="85" width="10" height="10" transform="rotate(0,190,90)" />
        <rect x="185" y="95" width="10" height="10" transform="rotate(0,190,100)" />
        <rect x="185" y="115" width="10" height="10" transform="rotate(0,190,120)" />
        <rect x="185" y="135" width="10" height="10" transform="rotate(0,190,140)" />
        <rect x="185" y="145" width="10" height="10" transform="rotate(0,190,150)" />
        <rect x="185" y="175" width="10" height="10" transform="rotate(0,190,180)" />
        <rect x="185" y="185" width="10" height="10" transform="rotate(0,190,190)" />
        <rect x="185" y="215" width="10" height="10" transform="rotate(0,190,220)" />
        <rect x="185" y="235" width="10" height="10" transform="rotate(0,190,240)" />
        <rect x="185" y="275" width="10" height="10" transform="rotate(0,190,280)" />
        <rect x="185" y="285" width="10" height="10" transform="rotate(0,190,290)" />
        <rect x="195" y="25" width="10" height="10" transform="rotate(0,200,30)" />
        <rect x="195" y="45" width="10" height="10" transform="rotate(0,200,50)" />
        <rect x="195" y="85" width="10" height="10" transform="rotate(0,200,90)" />
        <rect x="195" y="125" width="10" height="10" transform="rotate(0,200,130)" />
        <rect x="195" y="135" width="10" height="10" transform="rotate(0,200,140)" />
        <rect x="195" y="155" width="10" height="10" transform="rotate(0,200,160)" />
        <rect x="195" y="165" width="10" height="10" transform="rotate(0,200,170)" />
        <rect x="195" y="175" width="10" height="10" transform="rotate(0,200,180)" />
        <rect x="195" y="195" width="10" height="10" transform="rotate(0,200,200)" />
        <rect x="195" y="205" width="10" height="10" transform="rotate(0,200,210)" />
        <rect x="195" y="255" width="10" height="10" transform="rotate(0,200,260)" />
        <rect x="195" y="275" width="10" height="10" transform="rotate(0,200,280)" />
        <rect x="205" y="5" width="10" height="10" transform="rotate(0,210,10)" />
        <rect x="205" y="25" width="10" height="10" transform="rotate(0,210,30)" />
        <rect x="205" y="65" width="10" height="10" transform="rotate(0,210,70)" />
        <rect x="205" y="75" width="10" height="10" transform="rotate(0,210,80)" />
        <rect x="205" y="85" width="10" height="10" transform="rotate(0,210,90)" />
        <rect x="205" y="125" width="10" height="10" transform="rotate(0,210,130)" />
        <rect x="205" y="145" width="10" height="10" transform="rotate(0,210,150)" />
        <rect x="205" y="165" width="10" height="10" transform="rotate(0,210,170)" />
        <rect x="205" y="185" width="10" height="10" transform="rotate(0,210,190)" />
        <rect x="205" y="205" width="10" height="10" transform="rotate(0,210,210)" />
        <rect x="205" y="215" width="10" height="10" transform="rotate(0,210,220)" />
        <rect x="205" y="225" width="10" height="10" transform="rotate(0,210,230)" />
        <rect x="205" y="235" width="10" height="10" transform="rotate(0,210,240)" />
        <rect x="205" y="245" width="10" height="10" transform="rotate(0,210,250)" />
        <rect x="205" y="265" width="10" height="10" transform="rotate(0,210,270)" />
        <rect x="215" y="85" width="10" height="10" transform="rotate(0,220,90)" />
        <rect x="215" y="105" width="10" height="10" transform="rotate(0,220,110)" />
        <rect x="215" y="115" width="10" height="10" transform="rotate(0,220,120)" />
        <rect x="215" y="165" width="10" height="10" transform="rotate(0,220,170)" />
        <rect x="215" y="175" width="10" height="10" transform="rotate(0,220,180)" />
        <rect x="215" y="195" width="10" height="10" transform="rotate(0,220,200)" />
        <rect x="215" y="205" width="10" height="10" transform="rotate(0,220,210)" />
        <rect x="215" y="245" width="10" height="10" transform="rotate(0,220,250)" />
        <rect x="215" y="275" width="10" height="10" transform="rotate(0,220,280)" />
        <rect x="215" y="285" width="10" height="10" transform="rotate(0,220,290)" />
        <rect x="225" y="85" width="10" height="10" transform="rotate(0,230,90)" />
        <rect x="225" y="95" width="10" height="10" transform="rotate(0,230,100)" />
        <rect x="225" y="135" width="10" height="10" transform="rotate(0,230,140)" />
        <rect x="225" y="145" width="10" height="10" transform="rotate(0,230,150)" />
        <rect x="225" y="165" width="10" height="10" transform="rotate(0,230,170)" />
        <rect x="225" y="185" width="10" height="10" transform="rotate(0,230,190)" />
        <rect x="225" y="205" width="10" height="10" transform="rotate(0,230,210)" />
        <rect x="225" y="225" width="10" height="10" transform="rotate(0,230,230)" />
        <rect x="225" y="245" width="10" height="10" transform="rotate(0,230,250)" />
        <rect x="225" y="255" width="10" height="10" transform="rotate(0,230,260)" />
        <rect x="225" y="265" width="10" height="10" transform="rotate(0,230,270)" />
        <rect x="225" y="275" width="10" height="10" transform="rotate(0,230,280)" />
        <rect x="235" y="85" width="10" height="10" transform="rotate(0,240,90)" />
        <rect x="235" y="95" width="10" height="10" transform="rotate(0,240,100)" />
        <rect x="235" y="105" width="10" height="10" transform="rotate(0,240,110)" />
        <rect x="235" y="125" width="10" height="10" transform="rotate(0,240,130)" />
        <rect x="235" y="185" width="10" height="10" transform="rotate(0,240,190)" />
        <rect x="235" y="205" width="10" height="10" transform="rotate(0,240,210)" />
        <rect x="235" y="245" width="10" height="10" transform="rotate(0,240,250)" />
        <rect x="235" y="265" width="10" height="10" transform="rotate(0,240,270)" />
        <rect x="235" y="285" width="10" height="10" transform="rotate(0,240,290)" />
        <rect x="245" y="95" width="10" height="10" transform="rotate(0,250,100)" />
        <rect x="245" y="115" width="10" height="10" transform="rotate(0,250,120)" />
        <rect x="245" y="125" width="10" height="10" transform="rotate(0,250,130)" />
        <rect x="245" y="135" width="10" height="10" transform="rotate(0,250,140)" />
        <rect x="245" y="165" width="10" height="10" transform="rotate(0,250,170)" />
        <rect x="245" y="185" width="10" height="10" transform="rotate(0,250,190)" />
        <rect x="245" y="205" width="10" height="10" transform="rotate(0,250,210)" />
        <rect x="245" y="215" width="10" height="10" transform="rotate(0,250,220)" />
        <rect x="245" y="225" width="10" height="10" transform="rotate(0,250,230)" />
        <rect x="245" y="235" width="10" height="10" transform="rotate(0,250,240)" />
        <rect x="245" y="245" width="10" height="10" transform="rotate(0,250,250)" />
        <rect x="245" y="255" width="10" height="10" transform="rotate(0,250,260)" />
        <rect x="245" y="275" width="10" height="10" transform="rotate(0,250,280)" />
        <rect x="255" y="85" width="10" height="10" transform="rotate(0,260,90)" />
        <rect x="255" y="95" width="10" height="10" transform="rotate(0,260,100)" />
        <rect x="255" y="125" width="10" height="10" transform="rotate(0,260,130)" />
        <rect x="255" y="155" width="10" height="10" transform="rotate(0,260,160)" />
        <rect x="255" y="185" width="10" height="10" transform="rotate(0,260,190)" />
        <rect x="255" y="195" width="10" height="10" transform="rotate(0,260,200)" />
        <rect x="255" y="205" width="10" height="10" transform="rotate(0,260,210)" />
        <rect x="255" y="215" width="10" height="10" transform="rotate(0,260,220)" />
        <rect x="255" y="225" width="10" height="10" transform="rotate(0,260,230)" />
        <rect x="255" y="245" width="10" height="10" transform="rotate(0,260,250)" />
        <rect x="255" y="265" width="10" height="10" transform="rotate(0,260,270)" />
        <rect x="255" y="285" width="10" height="10" transform="rotate(0,260,290)" />
        <rect x="265" y="95" width="10" height="10" transform="rotate(0,270,100)" />
        <rect x="265" y="105" width="10" height="10" transform="rotate(0,270,110)" />
        <rect x="265" y="115" width="10" height="10" transform="rotate(0,270,120)" />
        <rect x="265" y="135" width="10" height="10" transform="rotate(0,270,140)" />
        <rect x="265" y="145" width="10" height="10" transform="rotate(0,270,150)" />
        <rect x="265" y="155" width="10" height="10" transform="rotate(0,270,160)" />
        <rect x="265" y="165" width="10" height="10" transform="rotate(0,270,170)" />
        <rect x="265" y="195" width="10" height="10" transform="rotate(0,270,200)" />
        <rect x="265" y="205" width="10" height="10" transform="rotate(0,270,210)" />
        <rect x="265" y="245" width="10" height="10" transform="rotate(0,270,250)" />
        <rect x="265" y="265" width="10" height="10" transform="rotate(0,270,270)" />
        <rect x="265" y="285" width="10" height="10" transform="rotate(0,270,290)" />
        <rect x="275" y="85" width="10" height="10" transform="rotate(0,280,90)" />
        <rect x="275" y="95" width="10" height="10" transform="rotate(0,280,100)" />
        <rect x="275" y="105" width="10" height="10" transform="rotate(0,280,110)" />
        <rect x="275" y="125" width="10" height="10" transform="rotate(0,280,130)" />
        <rect x="275" y="135" width="10" height="10" transform="rotate(0,280,140)" />
        <rect x="275" y="145" width="10" height="10" transform="rotate(0,280,150)" />
        <rect x="275" y="165" width="10" height="10" transform="rotate(0,280,170)" />
        <rect x="275" y="175" width="10" height="10" transform="rotate(0,280,180)" />
        <rect x="275" y="215" width="10" height="10" transform="rotate(0,280,220)" />
        <rect x="275" y="225" width="10" height="10" transform="rotate(0,280,230)" />
        <rect x="275" y="235" width="10" height="10" transform="rotate(0,280,240)" />
        <rect x="275" y="275" width="10" height="10" transform="rotate(0,280,280)" />
        <rect x="285" y="95" width="10" height="10" transform="rotate(0,290,100)" />
        <rect x="285" y="105" width="10" height="10" transform="rotate(0,290,110)" />
        <rect x="285" y="115" width="10" height="10" transform="rotate(0,290,120)" />
        <rect x="285" y="135" width="10" height="10" transform="rotate(0,290,140)" />
        <rect x="285" y="155" width="10" height="10" transform="rotate(0,290,160)" />
        <rect x="285" y="175" width="10" height="10" transform="rotate(0,290,180)" />
        <rect x="285" y="205" width="10" height="10" transform="rotate(0,290,210)" />
        <rect x="285" y="215" width="10" height="10" transform="rotate(0,290,220)" />
        <rect x="285" y="225" width="10" height="10" transform="rotate(0,290,230)" />
        <rect x="285" y="245" width="10" height="10" transform="rotate(0,290,250)" />
        <rect x="285" y="255" width="10" height="10" transform="rotate(0,290,260)" />
        <rect x="285" y="275" width="10" height="10" transform="rotate(0,290,280)" />
      </g>
      <g fill="currentColor" class="fill-black dark:fill-white">
        <rect x="5" y="5" width="10" height="10" transform="rotate(0,10,10)" />
        <rect x="5" y="15" width="10" height="10" transform="rotate(0,10,20)" />
        <rect x="5" y="25" width="10" height="10" transform="rotate(0,10,30)" />
        <rect x="5" y="35" width="10" height="10" transform="rotate(0,10,40)" />
        <rect x="5" y="45" width="10" height="10" transform="rotate(0,10,50)" />
        <rect x="5" y="55" width="10" height="10" transform="rotate(0,10,60)" />
        <rect x="5" y="65" width="10" height="10" transform="rotate(0,10,70)" />
        <rect x="15" y="5" width="10" height="10" transform="rotate(0,20,10)" />
        <rect x="15" y="65" width="10" height="10" transform="rotate(0,20,70)" />
        <rect x="25" y="5" width="10" height="10" transform="rotate(0,30,10)" />
        <rect x="25" y="65" width="10" height="10" transform="rotate(0,30,70)" />
        <rect x="35" y="5" width="10" height="10" transform="rotate(0,40,10)" />
        <rect x="35" y="65" width="10" height="10" transform="rotate(0,40,70)" />
        <rect x="45" y="5" width="10" height="10" transform="rotate(0,50,10)" />
        <rect x="45" y="65" width="10" height="10" transform="rotate(0,50,70)" />
        <rect x="55" y="5" width="10" height="10" transform="rotate(0,60,10)" />
        <rect x="55" y="65" width="10" height="10" transform="rotate(0,60,70)" />
        <rect x="65" y="5" width="10" height="10" transform="rotate(0,70,10)" />
        <rect x="65" y="15" width="10" height="10" transform="rotate(0,70,20)" />
        <rect x="65" y="25" width="10" height="10" transform="rotate(0,70,30)" />
        <rect x="65" y="35" width="10" height="10" transform="rotate(0,70,40)" />
        <rect x="65" y="45" width="10" height="10" transform="rotate(0,70,50)" />
        <rect x="65" y="55" width="10" height="10" transform="rotate(0,70,60)" />
        <rect x="65" y="65" width="10" height="10" transform="rotate(0,70,70)" />
      </g>
      <g fill="currentColor" class="fill-black dark:fill-white">
        <rect x="25" y="25" width="10" height="10" transform="rotate(0,30,30)" />
        <rect x="25" y="35" width="10" height="10" transform="rotate(0,30,40)" />
        <rect x="25" y="45" width="10" height="10" transform="rotate(0,30,50)" />
        <rect x="35" y="25" width="10" height="10" transform="rotate(0,40,30)" />
        <rect x="35" y="35" width="10" height="10" transform="rotate(0,40,40)" />
        <rect x="35" y="45" width="10" height="10" transform="rotate(0,40,50)" />
        <rect x="45" y="25" width="10" height="10" transform="rotate(0,50,30)" />
        <rect x="45" y="35" width="10" height="10" transform="rotate(0,50,40)" />
        <rect x="45" y="45" width="10" height="10" transform="rotate(0,50,50)" />
      </g>
      <g fill="currentColor" class="fill-black dark:fill-white">
        <rect x="225" y="5" width="10" height="10" transform="rotate(0,230,10)" />
        <rect x="225" y="15" width="10" height="10" transform="rotate(0,230,20)" />
        <rect x="225" y="25" width="10" height="10" transform="rotate(0,230,30)" />
        <rect x="225" y="35" width="10" height="10" transform="rotate(0,230,40)" />
        <rect x="225" y="45" width="10" height="10" transform="rotate(0,230,50)" />
        <rect x="225" y="55" width="10" height="10" transform="rotate(0,230,60)" />
        <rect x="225" y="65" width="10" height="10" transform="rotate(0,230,70)" />
        <rect x="235" y="5" width="10" height="10" transform="rotate(0,240,10)" />
        <rect x="235" y="65" width="10" height="10" transform="rotate(0,240,70)" />
        <rect x="245" y="5" width="10" height="10" transform="rotate(0,250,10)" />
        <rect x="245" y="65" width="10" height="10" transform="rotate(0,250,70)" />
        <rect x="255" y="5" width="10" height="10" transform="rotate(0,260,10)" />
        <rect x="255" y="65" width="10" height="10" transform="rotate(0,260,70)" />
        <rect x="265" y="5" width="10" height="10" transform="rotate(0,270,10)" />
        <rect x="265" y="65" width="10" height="10" transform="rotate(0,270,70)" />
        <rect x="275" y="5" width="10" height="10" transform="rotate(0,280,10)" />
        <rect x="275" y="65" width="10" height="10" transform="rotate(0,280,70)" />
        <rect x="285" y="5" width="10" height="10" transform="rotate(0,290,10)" />
        <rect x="285" y="15" width="10" height="10" transform="rotate(0,290,20)" />
        <rect x="285" y="25" width="10" height="10" transform="rotate(0,290,30)" />
        <rect x="285" y="35" width="10" height="10" transform="rotate(0,290,40)" />
        <rect x="285" y="45" width="10" height="10" transform="rotate(0,290,50)" />
        <rect x="285" y="55" width="10" height="10" transform="rotate(0,290,60)" />
        <rect x="285" y="65" width="10" height="10" transform="rotate(0,290,70)" />
      </g>
      <g fill="currentColor" class="fill-black dark:fill-white">
        <rect x="245" y="25" width="10" height="10" transform="rotate(0,250,30)" />
        <rect x="245" y="35" width="10" height="10" transform="rotate(0,250,40)" />
        <rect x="245" y="45" width="10" height="10" transform="rotate(0,250,50)" />
        <rect x="255" y="25" width="10" height="10" transform="rotate(0,260,30)" />
        <rect x="255" y="35" width="10" height="10" transform="rotate(0,260,40)" />
        <rect x="255" y="45" width="10" height="10" transform="rotate(0,260,50)" />
        <rect x="265" y="25" width="10" height="10" transform="rotate(0,270,30)" />
        <rect x="265" y="35" width="10" height="10" transform="rotate(0,270,40)" />
        <rect x="265" y="45" width="10" height="10" transform="rotate(0,270,50)" />
      </g>
      <g fill="currentColor" class="fill-black dark:fill-white">
        <rect x="5" y="225" width="10" height="10" transform="rotate(0,10,230)" />
        <rect x="5" y="235" width="10" height="10" transform="rotate(0,10,240)" />
        <rect x="5" y="245" width="10" height="10" transform="rotate(0,10,250)" />
        <rect x="5" y="255" width="10" height="10" transform="rotate(0,10,260)" />
        <rect x="5" y="265" width="10" height="10" transform="rotate(0,10,270)" />
        <rect x="5" y="275" width="10" height="10" transform="rotate(0,10,280)" />
        <rect x="5" y="285" width="10" height="10" transform="rotate(0,10,290)" />
        <rect x="15" y="225" width="10" height="10" transform="rotate(0,20,230)" />
        <rect x="15" y="285" width="10" height="10" transform="rotate(0,20,290)" />
        <rect x="25" y="225" width="10" height="10" transform="rotate(0,30,230)" />
        <rect x="25" y="285" width="10" height="10" transform="rotate(0,30,290)" />
        <rect x="35" y="225" width="10" height="10" transform="rotate(0,40,230)" />
        <rect x="35" y="285" width="10" height="10" transform="rotate(0,40,290)" />
        <rect x="45" y="225" width="10" height="10" transform="rotate(0,50,230)" />
        <rect x="45" y="285" width="10" height="10" transform="rotate(0,50,290)" />
        <rect x="55" y="225" width="10" height="10" transform="rotate(0,60,230)" />
        <rect x="55" y="285" width="10" height="10" transform="rotate(0,60,290)" />
        <rect x="65" y="225" width="10" height="10" transform="rotate(0,70,230)" />
        <rect x="65" y="235" width="10" height="10" transform="rotate(0,70,240)" />
        <rect x="65" y="245" width="10" height="10" transform="rotate(0,70,250)" />
        <rect x="65" y="255" width="10" height="10" transform="rotate(0,70,260)" />
        <rect x="65" y="265" width="10" height="10" transform="rotate(0,70,270)" />
        <rect x="65" y="275" width="10" height="10" transform="rotate(0,70,280)" />
        <rect x="65" y="285" width="10" height="10" transform="rotate(0,70,290)" />
      </g>
      <g fill="currentColor" class="fill-black dark:fill-white">
        <rect x="25" y="245" width="10" height="10" transform="rotate(0,30,250)" />
        <rect x="25" y="255" width="10" height="10" transform="rotate(0,30,260)" />
        <rect x="25" y="265" width="10" height="10" transform="rotate(0,30,270)" />
        <rect x="35" y="245" width="10" height="10" transform="rotate(0,40,250)" />
        <rect x="35" y="255" width="10" height="10" transform="rotate(0,40,260)" />
        <rect x="35" y="265" width="10" height="10" transform="rotate(0,40,270)" />
        <rect x="45" y="245" width="10" height="10" transform="rotate(0,50,250)" />
        <rect x="45" y="255" width="10" height="10" transform="rotate(0,50,260)" />
        <rect x="45" y="265" width="10" height="10" transform="rotate(0,50,270)" />
      </g>
    </svg>
  </g>
</svg>