<?xml version="1.0" encoding="utf-8"?>
<svg xmlns="http://www.w3.org/2000/svg" xmlns:xlink="http://www.w3.org/1999/xlink" style="margin: auto; display: block; z-index: 1; position: relative; shape-rendering: auto;" width="500" height="800" preserveAspectRatio="xMidYMid" viewBox="0 0 300 10">
<g transform=""><g transform="translate(628.6777727800563,-17.945962389307397) scale(100)" opacity="0.9">
  <path d="M4.10125 0 C4.10125 0.5525000000000001 4.354191740445465 0.8338297787537277 4.183459851053307 1.3592885040068001 S3.642732300071845 1.963672376572347 3.3179809481802534 2.4106542659645056 S3.0325022679136753 3.233912152115209 2.5855203785215166 3.5586635040068004 S1.792814673433326 3.72978864806334 1.2673559481802534 3.9005205374554985 S0.5525000000000003 4.398750000000001 2.6934575538747103e-16 4.398750000000001 S-0.7418972229271803 4.071252426847657 -1.2673559481802528 3.900520537455499 S-2.1385384891293575 3.883414855898392 -2.585520378521516 3.5586635040068004 S-2.9932295962886615 2.8576361553566647 -3.317980948180253 2.410654265964506 S-4.012727961661149 1.884747229259873 -4.183459851053307 1.3592885040068006 S-4.10125 0.5525000000000007 -4.10125 5.022582685003083e-16 S-4.354191740445466 -0.833829778753727 -4.183459851053308 -1.3592885040067995 S-3.642732300071845 -1.9636723765723465 -3.3179809481802534 -2.410654265964505 S-3.0325022679136757 -3.2339121521152085 -2.585520378521517 -3.5586635040068 S-1.7928146734333263 -3.72978864806334 -1.2673559481802539 -3.9005205374554985 S-0.5525000000000009 -4.398750000000001 -8.080372661624131e-16 -4.398750000000001 S0.7418972229271799 -4.071252426847657 1.2673559481802523 -3.900520537455499 S2.138538489129357 -3.8834148558983923 2.5855203785215157 -3.558663504006801 S2.9932295962886615 -2.857636155356665 3.317980948180253 -2.4106542659645065 S4.012727961661148 -1.8847472292598735 4.183459851053307 -1.359288504006801 S4.10125 -0.5525000000000011 4.10125 -1.0045165370006166e-15" fill="#6281bb" stroke-width="0" transform="rotate(19.0221)">
    <animateTransform attributeName="transform" type="rotate" dur="10s" repeatCount="indefinite" values="0;36"></animateTransform>
  </path>
</g><g transform="translate(704.4133273360676,-56.53515486716887) scale(100)" opacity="0.9">
  <path d="M4.9215 0 C4.9215 0.6630000000000001 5.225030088534559 1.000595734504473 5.020151821263968 1.63114620480816 S4.371278760086214 2.3564068518868164 3.981577137816304 2.8927851191574065 S3.63900272149641 3.8806945825382506 3.1026244542258197 4.2703962048081605 S2.151377608119991 4.475746377676008 1.5208271378163039 4.680624644946598 S0.6630000000000005 5.2785 3.232149064649652e-16 5.2785 S-0.8902766675126164 4.885502912217189 -1.5208271378163034 4.680624644946598 S-2.5662461869552287 4.66009782707807 -3.102624454225819 4.2703962048081605 S-3.5918755155463935 3.429163386427997 -3.9815771378163034 2.892785119157407 S-4.815273553993378 2.2616966751118475 -5.020151821263968 1.6311462048081604 S-4.9215 0.6630000000000007 -4.9215 6.027099222003699e-16 S-5.2250300885345595 -1.0005957345044723 -5.020151821263969 -1.6311462048081593 S-4.371278760086214 -2.356406851886816 -3.981577137816304 -2.892785119157406 S-3.6390027214964102 -3.8806945825382497 -3.10262445422582 -4.27039620480816 S-2.1513776081199913 -4.475746377676008 -1.5208271378163045 -4.680624644946598 S-0.6630000000000011 -5.2785 -9.696447193948956e-16 -5.2785 S0.8902766675126157 -4.885502912217189 1.5208271378163027 -4.680624644946598 S2.5662461869552278 -4.66009782707807 3.1026244542258183 -4.2703962048081605 S3.5918755155463935 -3.4291633864279976 3.9815771378163034 -2.8927851191574074 S4.815273553993378 -2.261696675111848 5.020151821263968 -1.631146204808161 S4.9215 -0.6630000000000014 4.9215 -1.2054198444007398e-15" fill="#0031a6" stroke-width="0" transform="rotate(2.04427)">
    <animateTransform attributeName="transform" type="rotate" dur="5s" repeatCount="indefinite" values="0;36"></animateTransform>
  </path>
</g></g>
</svg>
