<?xml version="1.0" encoding="utf-8"?>
<svg xmlns="http://www.w3.org/2000/svg" xmlns:xlink="http://www.w3.org/1999/xlink" style="margin: auto; background: rgb(46, 0, 139); display: block; z-index: 1; position: relative; shape-rendering: auto;" width="500" height="350" preserveAspectRatio="xMidYMid" viewBox="0 0 500 350">
<g transform=""><defs>
  <path id="path-eu1by01t5ui-1" d="M-35 -35L35 -35L35 35L-35 35Z" fill="none" stroke="inherit" stroke-width="10.588235294117647" transform="scale(0.17)"></path>
  <path id="path-eu1by01t5ui-2" d="M0 -37A37 37 0 0 1 0 37A37 37 0 0 1 0 -37" fill="none" stroke="inherit" stroke-width="10.588235294117647" transform="scale(0.17)"></path>
  <path id="path-eu1by01t5ui-3" d="M0 -34.641L40 34.641L-40 34.641Z" fill="none" stroke="inherit" stroke-width="10.588235294117647" transform="scale(0.17)"></path>
</defs><path id="path0" d="M 56.35431473989628 21.774432548808615
c 0 29.608996208776357 -7.244754391509107 8.504711676988954 -15.749466068498062 8.504711676988954
S 24.855382602900153 51.38342875758497 24.855382602900153 21.774432548808615
s 7.244754391509107 -8.504711676988954 15.749466068498062 -8.504711676988954
S 56.35431473989628 -7.834563659967742 56.35431473989628 21.774432548808615
z" fill="none" stroke="none"></path>
<use xlink:href="#path-eu1by01t5ui-1" x="0" y="0" stroke="#4b22d6">
  <animateMotion begin="-0.8046063262301328s" dur="12.822073502222317s" keyPoints="0;1" keyTimes="0;1" repeatCount="indefinite" calcMode="linear">
    <mpath xlink:href="#path0"></mpath>
  </animateMotion>
</use><path id="path1" d="M 56.466868066753634 204.10967806783407
c 0 26.71693858852324 -6.537123271659941 7.674014275426888 -14.21113754708683 7.674014275426888
S 28.044592972579977 230.82661665635732 28.044592972579977 204.10967806783407
s 6.537123271659941 -7.674014275426888 14.21113754708683 -7.674014275426888
S 56.466868066753634 177.39273947931082 56.466868066753634 204.10967806783407
z" fill="none" stroke="none"></path>
<use xlink:href="#path-eu1by01t5ui-2" x="0" y="0" stroke="#855d78">
  <animateMotion begin="-2.381799418026138s" dur="18.546200027780493s" keyPoints="0;1" keyTimes="0;1" repeatCount="indefinite" calcMode="linear">
    <mpath xlink:href="#path1"></mpath>
  </animateMotion>
</use><path id="path2" d="M 94.19943003286284 119.0696333261834
c 0 46.19353368664704 -11.302673136094487 13.26835542063266 -24.57102855672715 13.26835542063266
S 45.05737291940854 165.26316701283045 45.05737291940854 119.0696333261834
s 11.302673136094487 -13.26835542063266 24.57102855672715 -13.26835542063266
S 94.19943003286284 72.87609963953636 94.19943003286284 119.0696333261834
z" fill="none" stroke="none"></path>
<use xlink:href="#path-eu1by01t5ui-2" x="0" y="0" stroke="#4b22d6">
  <animateMotion begin="-2.5831392168795198s" dur="19.205622913576367s" keyPoints="1;0" keyTimes="0;1" repeatCount="indefinite" calcMode="linear">
    <mpath xlink:href="#path2"></mpath>
  </animateMotion>
</use><path id="path3" d="M 114.20465019204516 79.83137686703513
c 0 32.28551871350847 -7.899648195858455 9.273500056007753 -17.17314825186621 9.273500056007753
S 79.85835368831275 112.1168955805436 79.85835368831275 79.83137686703513
s 7.899648195858455 -9.273500056007753 17.17314825186621 -9.273500056007753
S 114.20465019204516 47.54585815352666 114.20465019204516 79.83137686703513
z" fill="none" stroke="none"></path>
<use xlink:href="#path-eu1by01t5ui-2" x="0" y="0" stroke="#4b22d6">
  <animateMotion begin="-3.258985448952796s" dur="17.83481687673022s" keyPoints="1;0" keyTimes="0;1" repeatCount="indefinite" calcMode="linear">
    <mpath xlink:href="#path3"></mpath>
  </animateMotion>
</use><path id="path4" d="M 163.36919717298937 37.936906015480474
c 0 52.927312636438984 -12.95029990040528 15.202525970040984 -28.152825870446264 15.202525970040984
S 107.06354543209684 90.86421865191946 107.06354543209684 37.936906015480474
s 12.95029990040528 -15.202525970040984 28.152825870446264 -15.202525970040984
S 163.36919717298937 -14.99040662095851 163.36919717298937 37.936906015480474
z" fill="none" stroke="none"></path>
<use xlink:href="#path-eu1by01t5ui-2" x="0" y="0" stroke="#406f7c">
  <animateMotion begin="-1.8089166709856674s" dur="11.211887397964277s" keyPoints="1;0" keyTimes="0;1" repeatCount="indefinite" calcMode="linear">
    <mpath xlink:href="#path4"></mpath>
  </animateMotion>
</use><path id="path5" d="M 176.28598773143042 104.203277897182
c 0 57.488696515089494 -14.06638318986232 16.512710701142726 -30.579093891005048 16.512710701142726
S 115.12779994942034 161.6919744122715 115.12779994942034 104.203277897182
s 14.06638318986232 -16.512710701142726 30.579093891005048 -16.512710701142726
S 176.28598773143042 46.71458138209251 176.28598773143042 104.203277897182
z" fill="none" stroke="none"></path>
<use xlink:href="#path-eu1by01t5ui-3" x="0" y="0" stroke="#406f7c">
  <animateMotion begin="-3.3138363469135133s" dur="16.007118379082797s" keyPoints="1;0" keyTimes="0;1" repeatCount="indefinite" calcMode="linear">
    <mpath xlink:href="#path5"></mpath>
  </animateMotion>
</use><path id="path6" d="M 186.22036291103043 269.70996809965806
c 0 29.80886255742382 -7.293657859795188 8.56212009628131 -15.855777956076498 8.56212009628131
S 154.50880699887742 299.5188306570819 154.50880699887742 269.70996809965806
s 7.293657859795188 -8.56212009628131 15.855777956076498 -8.56212009628131
S 186.22036291103043 239.90110554223423 186.22036291103043 269.70996809965806
z" fill="none" stroke="none"></path>
<use xlink:href="#path-eu1by01t5ui-1" x="0" y="0" stroke="#855d78">
  <animateMotion begin="-0.7318831779369772s" dur="13.531122096589588s" keyPoints="1;0" keyTimes="0;1" repeatCount="indefinite" calcMode="linear">
    <mpath xlink:href="#path6"></mpath>
  </animateMotion>
</use><path id="path7" d="M 253.22168985260237 170.2005871864824
c 0 64.74985802512508 -15.84305036784975 18.598363475301884 -34.441413843151636 18.598363475301884
S 184.33886216629907 234.95044521160747 184.33886216629907 170.2005871864824
s 15.84305036784975 -18.598363475301884 34.441413843151636 -18.598363475301884
S 253.22168985260237 105.45072916135733 253.22168985260237 170.2005871864824
z" fill="none" stroke="none"></path>
<use xlink:href="#path-eu1by01t5ui-1" x="0" y="0" stroke="#406f7c">
  <animateMotion begin="-4.522808570258372s" dur="18.48324122079914s" keyPoints="0;1" keyTimes="0;1" repeatCount="indefinite" calcMode="linear">
    <mpath xlink:href="#path7"></mpath>
  </animateMotion>
</use><path id="path8" d="M 259.0842510393622 165.47417065128496
c 0 53.31036813421159 -13.044026245604963 15.312552549188437 -28.3565787947934 15.312552549188437
S 202.37109344977537 218.78453878549655 202.37109344977537 165.47417065128496
s 13.044026245604963 -15.312552549188437 28.3565787947934 -15.312552549188437
S 259.0842510393622 112.16380251707338 259.0842510393622 165.47417065128496
z" fill="none" stroke="none"></path>
<use xlink:href="#path-eu1by01t5ui-2" x="0" y="0" stroke="#855d78">
  <animateMotion begin="-1.2414814575676558s" dur="17.520109167638047s" keyPoints="0;1" keyTimes="0;1" repeatCount="indefinite" calcMode="linear">
    <mpath xlink:href="#path8"></mpath>
  </animateMotion>
</use><path id="path9" d="M 270.1571471624093 132.85768752444378
c 0 19.15536439234876 -4.6869508619576745 5.502072750993793 -10.189023612951466 5.502072750993793
S 249.77909993650633 152.01305191679253 249.77909993650633 132.85768752444378
s 4.6869508619576745 -5.502072750993793 10.189023612951466 -5.502072750993793
S 270.1571471624093 113.70232313209502 270.1571471624093 132.85768752444378
z" fill="none" stroke="none"></path>
<use xlink:href="#path-eu1by01t5ui-3" x="0" y="0" stroke="#4b22d6">
  <animateMotion begin="-0.26996772045903783s" dur="19.19789090554503s" keyPoints="0;1" keyTimes="0;1" repeatCount="indefinite" calcMode="linear">
    <mpath xlink:href="#path9"></mpath>
  </animateMotion>
</use><path id="path10" d="M 313.05396911952187 107.50881486124273
c 0 36.10672112793349 -8.834623254707129 10.371079472917065 -19.205702727624193 10.371079472917065
S 274.64256366427344 143.6155359891762 274.64256366427344 107.50881486124273
s 8.834623254707129 -10.371079472917065 19.205702727624193 -10.371079472917065
S 313.05396911952187 71.40209373330924 313.05396911952187 107.50881486124273
z" fill="none" stroke="none"></path>
<use xlink:href="#path-eu1by01t5ui-1" x="0" y="0" stroke="#855d78">
  <animateMotion begin="-0.953039945221611s" dur="15.983571351467052s" keyPoints="0;1" keyTimes="0;1" repeatCount="indefinite" calcMode="linear">
    <mpath xlink:href="#path10"></mpath>
  </animateMotion>
</use><path id="path11" d="M 333.08169232462626 156.7068416523927
c 0 36.600791441273174 -8.955512799460456 10.512993286323145 -19.468506085783602 10.512993286323145
S 294.1446801530591 193.30763309366588 294.1446801530591 156.7068416523927
s 8.955512799460456 -10.512993286323145 19.468506085783602 -10.512993286323145
S 333.08169232462626 120.10605021111954 333.08169232462626 156.7068416523927
z" fill="none" stroke="none"></path>
<use xlink:href="#path-eu1by01t5ui-2" x="0" y="0" stroke="#4b22d6">
  <animateMotion begin="-3.134867793851569s" dur="10.869227786091805s" keyPoints="1;0" keyTimes="0;1" repeatCount="indefinite" calcMode="linear">
    <mpath xlink:href="#path11"></mpath>
  </animateMotion>
</use><path id="path12" d="M 355.1799025011861 44.8477372295083
c 0 26.33847968475504 -6.444521624993254 7.565307994557299 -14.009829619550553 7.565307994557299
S 327.16024326208503 71.18621691426334 327.16024326208503 44.8477372295083
s 6.444521624993254 -7.565307994557299 14.009829619550553 -7.565307994557299
S 355.1799025011861 18.509257544753257 355.1799025011861 44.8477372295083
z" fill="none" stroke="none"></path>
<use xlink:href="#path-eu1by01t5ui-1" x="0" y="0" stroke="#4b22d6">
  <animateMotion begin="-1.6173427272931151s" dur="19.650364253709427s" keyPoints="0;1" keyTimes="0;1" repeatCount="indefinite" calcMode="linear">
    <mpath xlink:href="#path12"></mpath>
  </animateMotion>
</use><path id="path13" d="M 391.66403446077413 70.99326217492613
c 0 23.76432873236922 -5.814676179196723 6.8259242103613715 -12.640600389558095 6.8259242103613715
S 366.382833681658 94.75759090729535 366.382833681658 70.99326217492613
s 5.814676179196723 -6.8259242103613715 12.640600389558095 -6.8259242103613715
S 391.66403446077413 47.22893344255691 391.66403446077413 70.99326217492613
z" fill="none" stroke="none"></path>
<use xlink:href="#path-eu1by01t5ui-1" x="0" y="0" stroke="#855d78">
  <animateMotion begin="-0.8507190337987469s" dur="15.713209753225822s" keyPoints="1;0" keyTimes="0;1" repeatCount="indefinite" calcMode="linear">
    <mpath xlink:href="#path13"></mpath>
  </animateMotion>
</use><path id="path14" d="M 430.2026810854763 208.80960176675273
c 0 57.60158871717718 -14.094005749947607 16.545137184721106 -30.639142934668712 16.545137184721106
S 368.92439521613886 266.4111904839299 368.92439521613886 208.80960176675273
s 14.094005749947607 -16.545137184721106 30.639142934668712 -16.545137184721106
S 430.2026810854763 151.20801304957556 430.2026810854763 208.80960176675273
z" fill="none" stroke="none"></path>
<use xlink:href="#path-eu1by01t5ui-2" x="0" y="0" stroke="#4b22d6">
  <animateMotion begin="-1.1241098538578376s" dur="10.730533567191225s" keyPoints="1;0" keyTimes="0;1" repeatCount="indefinite" calcMode="linear">
    <mpath xlink:href="#path14"></mpath>
  </animateMotion>
</use><path id="path15" d="M 444.02694821562756 188.26621899642566
c 0 26.306396623572432 -6.436671514278361 7.556092647196337 -13.992764161474698 7.556092647196337
S 416.0414198926781 214.5726156199981 416.0414198926781 188.26621899642566
s 6.436671514278361 -7.556092647196337 13.992764161474698 -7.556092647196337
S 444.02694821562756 161.95982237285324 444.02694821562756 188.26621899642566
z" fill="none" stroke="none"></path>
<use xlink:href="#path-eu1by01t5ui-3" x="0" y="0" stroke="#4b22d6">
  <animateMotion begin="-4.098951576270363s" dur="12.528558131355386s" keyPoints="1;0" keyTimes="0;1" repeatCount="indefinite" calcMode="linear">
    <mpath xlink:href="#path15"></mpath>
  </animateMotion>
</use><path id="path16" d="M 475.73860639530966 324.93700052647625
c 0 42.90787112598016 -10.498734424441952 12.324601280866641 -22.823335705308594 12.324601280866641
S 430.0919349846925 367.8448716524564 430.0919349846925 324.93700052647625
s 10.498734424441952 -12.324601280866641 22.823335705308594 -12.324601280866641
S 475.73860639530966 282.0291294004961 475.73860639530966 324.93700052647625
z" fill="none" stroke="none"></path>
<use xlink:href="#path-eu1by01t5ui-2" x="0" y="0" stroke="#855d78">
  <animateMotion begin="-3.741703260897291s" dur="12.817892608833146s" keyPoints="1;0" keyTimes="0;1" repeatCount="indefinite" calcMode="linear">
    <mpath xlink:href="#path16"></mpath>
  </animateMotion>
</use><path id="path17" d="M 502.3262247159046 250.28656191058855
c 0 40.00630343091465 -9.78877637139401 11.49117226207123 -21.27994863346524 11.49117226207123
S 459.76632744897415 290.2928653415032 459.76632744897415 250.28656191058855
s 9.78877637139401 -11.49117226207123 21.27994863346524 -11.49117226207123
S 502.3262247159046 210.2802584796739 502.3262247159046 250.28656191058855
z" fill="none" stroke="none"></path>
<use xlink:href="#path-eu1by01t5ui-1" x="0" y="0" stroke="#406f7c">
  <animateMotion begin="-3.303725726495963s" dur="15.663190285742697s" keyPoints="0;1" keyTimes="0;1" repeatCount="indefinite" calcMode="linear">
    <mpath xlink:href="#path17"></mpath>
  </animateMotion>
</use></g>
</svg>